<svg xmlns="http://www.w3.org/2000/svg" viewBox="0 0 450 160" width="450" height="160" role="img" aria-label="Aravindh.net Logo">
  <title>Aravindh.net - Precision &amp; Craft</title>
  <defs>
    <!-- Refined Anodized Gradients from your original palette -->
    <linearGradient id="square-base" x1="0%" y1="0%" x2="100%" y2="100%">
      <stop offset="0%" style="stop-color:#f0911c;stop-opacity:1" />
      <stop offset="100%" style="stop-color:#d4661b;stop-opacity:1" />
    </linearGradient>
    
    <linearGradient id="square-highlight" x1="0%" y1="0%" x2="0%" y2="100%">
      <stop offset="0%" style="stop-color:#e8a81c;stop-opacity:1" />
      <stop offset="100%" style="stop-color:#f0911c;stop-opacity:0.8" />
    </linearGradient>

    <!-- Glassy Wordmark Gradient -->
    <linearGradient id="wordmark-grad" x1="0%" y1="0%" x2="0%" y2="100%">
      <stop offset="0%" style="stop-color:#222;stop-opacity:1" />
      <stop offset="100%" style="stop-color:#000;stop-opacity:1" />
    </linearGradient>

    <linearGradient id="wordmark-grad-dark" x1="0%" y1="0%" x2="0%" y2="100%">
      <stop offset="0%" style="stop-color:#eee;stop-opacity:1" />
      <stop offset="100%" style="stop-color:#ccc;stop-opacity:1" />
    </linearGradient>
    
    <filter id="subtle-shadow" x="-10%" y="-10%" width="120%" height="120%">
      <feDropShadow dx="0" dy="2" stdDeviation="2" flood-opacity="0.15"/>
    </filter>
  </defs>

  <style>
    .word-path { fill: url(#wordmark-grad); }
    .square-path { filter: url(#subtle-shadow); }
    .tick-mark { fill: #393536; opacity: 0.8; }
    
    @media (prefers-color-scheme: dark) {
      .word-path { fill: url(#wordmark-grad-dark); }
      .tick-mark { fill: #eee; opacity: 0.4; }
    }
  </style>

  <!-- THE ICON (Refined from aravindh_logo1.svg geometry) -->
  <g id="icon" transform="translate(15, 20) scale(0.42)">
    <!-- Base Layer (The main shape) -->
    <path class="square-path" d="m 410.1,450.3 v 898.3 l 48.7,-49.1 1.3,-1.3 14.7,-14.8 1.5,-1.5 5.5,-5.6 1.4,-1.4 13.7,-13.8 1.6,-1.6 3.5,-3.5 1.6,-1.6 9,-9.1 1.5,-1.6 13,-13.1 1.5,-1.6 7.3,-7.4 1.6,-1.6 18.7,-18.8 1.4,-1.4 16.1,-16.3 1.6,-1.6 2.6,-2.6 1.5,-1.5 9.8,-9.9 1.4,-1.4 30.5,-30.8 1.6,-1.6 5.2,-5.2 1.7,-1.7 36.7,-37 1.4,-1.4 9.8,-9.9 1.4,-1.4 9.4,-9.5 1.4,-1.4 8.1,-8.2 1.5,-1.6 24.5,-24.7 1.6,-1.6 38.9,-39.2 1.9,-1.9 3.9,-4 48.3,-48.7 1.6,-1.6 29,-29.2 1.6,-1.6 18.2,-18.3 2.3,-2.3 22.5,-22.7 1.5,-1.5 13.2,-13.3 1.5,-1.5 4.1,-4.1 1.4,-1.4 14.5,-14.6 1.4,-1.4 4.4,-4.4 2.1,-2.1 22,-22.2 2.1,-2.2 8.6,-8.7 2.1,-2.2 50.4,-50.8 3.6,-3.6 26,-26.2 2.1,-2.1 13.8,-13.9 2,-2.1 14.6,-14.7 2.1,-2.2 74.1,-74.7 4.3,-4.4 50.7,-51.1 1.9,-1.9 8.5,-8.5 1.9,-1.9 12.7,-12.8 1.9,-1.9 13.4,-13.5 2.8,-2.8 38.5,-38.8 z" fill="url(#square-base)" />
    
    <!-- Highlight Overlay -->
    <path d="m 1850.6,265.1 -5.4,5.5 -26,26.2 -3.7,3.8 -24.6,24.8 -3.7,3.8 -16.5,16.6 -3.7,3.8 -98.4,99.2 -8.4,8.5 -143.8,144.9 -4.2,4.2 -28.4,28.6 -4,4 -26.7,27 -4.1,4.1 -50.5,50.9 -7,7.1 -97.9,98.7 -4.2,4.2 -16.8,16.9 -4.2,4.2 -42.7,43 -4.2,4.2 -8.6,8.7 -2.7,2.8 -28.1,28.4 -2.7,2.7 -8,8 -2.9,3 -25.6,25.8 -2.9,2.9 -43.7,44 -4.5,4.6 -35.4,35.6 -3.1,3.1 -56.3,56.7 -3.1,3.1 -93.7,94.4 -7.7,7.7 -3.7,3.7 -75.5,76.1 -3.1,3.2 -47.5,47.9 -3,3.1 -15.8,15.9 -2.8,2.8 -18.4,18.6 -2.8,2.8 -19,19.2 -2.7,2.7 -71.2,71.8 -3.4,3.4 -10.1,10.1 -3.1,3.2 -59.3,59.8 -2.8,2.8 -19,19.2 -3,3 -5,5.1 -3.2,3.2 -31.4,31.7 -2.8,2.8 -36.3,36.6 -3.1,3.1 -14.3,14.4 -3,3.1 -25.3,25.5 -3,3.1 -17.5,17.7 -3.1,3.1 -6.9,6.9 -3.1,3.1 -26.5,26.7 -2.8,2.8 -10.8,10.9 -3,3 -28.5,28.8 -2.6,2.7 -94.6,95.4 v -233.7 l 12.5,-12.6 2.7,-2.7 12.7,-12.7 2.7,-2.7 32.2,-32.5 2.5,-2.5 27.8,-28.1 2.8,-2.8 4.4,-4.5 2.6,-2.6 16.9,-17 2.5,-2.5 52.6,-53 2.7,-2.8 8.9,-9 3,-3 63.1,-63.7 2.4,-2.4 16.9,-17 2.5,-2.5 16.3,-16.5 2.5,-2.5 14,-14.1 2.7,-2.7 42.1,-42.5 2.7,-2.8 66.9,-67.5 3.3,-3.3 6.8,-6.9 83.1,-83.7 2.7,-2.7 49.9,-50.3 2.7,-2.7 31.4,-31.6 4,-4 38.7,-39 2.5,-2.6 22.7,-22.9 2.6,-2.6 7.1,-7.1 2.4,-2.4 24.9,-25.1 2.4,-2.5 7.6,-7.7 3.7,-3.7 37.8,-38.2 3.7,-3.7 14.9,-15 3.7,-3.7 86.8,-87.5 6.2,-6.3 44.8,-45.1 3.7,-3.7 23.7,-23.9 3.5,-3.6 25.1,-25.3 3.7,-3.7 127.5,-128.5 7.5,-7.5 87.2,-87.9 3.3,-3.3 14.6,-14.7 3.3,-3.3 21.9,-22 3.3,-3.3 23.1,-23.2 4.8,-4.9 66.3,-66.8 H 195.8 V 189.7 h 1729.5 l -74.8,75.4" fill="url(#square-highlight)" />

    <!-- Ticks (Consolidated for performance) -->
    <g transform="translate(195, 189)">
       <rect x="0" y="26" width="43" height="11" class="tick-mark" />
       <rect x="0" y="54" width="43" height="11" class="tick-mark" />
       <rect x="0" y="83" width="43" height="11" class="tick-mark" />
       <rect x="0" y="112" width="43" height="11" class="tick-mark" />
       <rect x="0" y="141" width="75" height="11" class="tick-mark" />
       <!-- Repeated for the full set as in your file -->
       <rect x="0" y="174" width="43" height="11" class="tick-mark" />
       <rect x="0" y="202" width="43" height="11" class="tick-mark" />
       <rect x="0" y="231" width="43" height="11" class="tick-mark" />
       <rect x="0" y="260" width="43" height="11" class="tick-mark" />
       <rect x="0" y="289" width="75" height="11" class="tick-mark" />
    </g>
  </g>

  <!-- THE TYPOGRAPHY (From glass-wordmark-black.svg paths) -->
  <g transform="translate(105, 15) scale(0.72)">
      <path class="word-path" d="M160.407 74.8958C160.424 74.8602 160.448 74.8077 160.465 74.7755C160.465 74.9077 160.441 74.9229 160.407 74.8958ZM149.912 81.7101C143.556 94.339 138.462 102.166 132.72 102.166C129.238 102.166 126.709 99.0252 126.709 93.3919C126.709 88.5785 128.49 83.1739 132.116 77.1695C135.773 71.1126 140.576 66.9464 146.052 66.9464C150.447 66.9464 153.764 69.4895 155.177 70.794C153.862 73.6726 152.139 77.283 149.912 81.7101ZM104.135 22.9824C104.135 12.7695 107.797 6.67194 114.742 6.67194C120.556 6.67194 123.677 11.448 123.677 19.4482C123.677 28.0093 120.853 44.1927 104.135 64.9116V22.9824ZM252.647 70.2027C247.741 63.1377 244.902 59.9271 244.783 59.795C244.069 58.9902 243.018 58.5785 241.935 58.6971C240.864 58.814 239.916 59.4409 239.388 60.3829C239.309 60.5252 231.284 74.8433 225.513 83.5212C222.354 88.2736 219.371 92.7616 215.829 95.569C215.138 96.1145 214.422 96.6194 213.686 97.0904C214.497 94.8794 214.92 92.4024 214.92 89.6035C214.92 82.054 210.95 75.6599 206.154 68.6762C202.441 63.2665 199.972 60.1118 199.869 59.9797C199.172 59.0953 198.084 58.6294 196.953 58.7192C195.831 58.8191 194.835 59.4799 194.307 60.4761C194.208 60.6625 184.38 79.1755 176 93.5291C172.72 99.1455 170.916 101.494 168.234 101.494C167.437 101.494 166.723 101.206 166.274 100.708C165.872 100.255 165.64 99.4353 165.64 98.4543C165.64 91.2165 165.538 62.5905 165.538 62.5905C165.533 60.9522 164.34 59.5612 162.724 59.3071C161.089 59.0563 159.546 60.0119 159.04 61.5672C159.033 61.5892 158.735 62.4905 157.943 64.4355C155.359 62.4939 151.264 60.2762 146.052 60.2762C140.838 60.2762 136.196 62.1686 132.116 66.2535C129.087 69.2845 126.207 73.3659 122.479 80.3394C119.769 85.4052 116.334 91.8145 112.921 96.3653C110.369 99.7673 108.237 101.494 106.582 101.494C105.912 101.494 104.135 101.494 104.135 97.7427V75.1754C113.75 64.4728 119.822 54.6496 123.745 46.1123C129.048 34.5745 130.591 25.7491 130.591 19.8193C130.591 5.46563 122.198 -4.31723e-06 115.226 -4.31723e-06C107.037 -4.31723e-06 97.4723 6.01964 97.4723 22.9824V72.5899C95.8799 74.3028 94.1927 76.0445 92.4057 77.8082C88.7166 81.4492 83.5196 86.2473 77.854 91.4367V97.7427C97.4723 104.942 102.046 108.164 106.582 108.164C110.181 108.164 113.148 106.539 115.772 103.532C117.409 101.658 118.983 99.3387 120.262 97.2768C120.79 99.6979 121.793 101.992 122.558 103.168C124.831 106.66 128.466 108.838 132.72 108.838C142.894 108.838 149.22 97.9104 155.862 84.7106C156.713 83.0197 158.336 79.4042 159.487 76.8832C159.236 83.3636 158.976 90.471 158.976 96.7482C158.976 100.833 159.918 103.466 161.448 105.175C163.162 107.083 165.548 108.164 168.234 108.164C175.172 108.164 178.667 102.178 181.75 96.8956C187.636 86.8182 194.219 74.7247 197.706 68.2459C198.558 69.4268 199.556 70.8398 200.664 72.4544C204.966 78.7197 208.258 83.96 208.258 89.6035C208.258 93.7849 207.095 96.7312 204.602 98.8812C202.502 100.691 200.138 101.65 196.508 101.65C193.489 101.65 191.415 100.445 190.003 99.4895C188.494 98.4661 186.515 98.5017 185.331 99.8995C184.143 101.306 184.451 103.269 185.722 104.601C188.11 107.1 192.399 108.255 198.517 108.255C207.059 107.873 214.106 105.44 219.965 100.799C224.332 97.3378 227.752 92.1924 231.059 87.218C235.032 81.2441 239.899 72.9254 242.768 67.9291C243.932 69.4556 245.414 71.4717 247.178 74.0097C250.935 79.4211 253.216 83.1027 253.216 88.5938C253.216 96.1552 247.848 101.436 240.163 101.436C236.06 101.436 233.709 100.091 231.722 99.0964C230.966 98.7169 230.274 98.5153 229.565 98.5322C228.548 98.5559 227.57 99.0134 226.943 99.8995C225.879 101.402 226.309 103.383 227.732 104.548C229.072 105.645 232.827 108.108 240.163 108.108C251.98 108.108 260 100.027 260 88.7192C260 81.3136 256.881 76.3003 252.647 70.2027Z" />
  </g>

  <!-- .NET Contrast (Clean Sans) -->
  <text x="315" y="85" font-family="system-ui, sans-serif" font-size="14" font-weight="600" letter-spacing="0.1em" class="word-path" opacity="0.6">.NET</text>
</svg>