<?xml version="1.0" encoding="UTF-8" standalone="no"?>
<!-- Created with Inkscape (http://www.inkscape.org/) -->

<svg
   width="400mm"
   height="200mm"
   viewBox="0 0 400 200"
   version="1.1"
   id="svg1"
   xml:space="preserve"
   xmlns="http://www.w3.org/2000/svg"
   xmlns:svg="http://www.w3.org/2000/svg"><defs
     id="defs1"><rect
       x="537.96002"
       y="185.61192"
       width="739.30176"
       height="223.36349"
       id="rect1" /></defs><g
     id="layer1"><text
       xml:space="preserve"
       transform="matrix(0.43270618,0,0,0.43270618,-138.21828,12.008364)"
       id="text1"
       style="font-style:normal;font-variant:normal;font-weight:normal;font-stretch:normal;font-size:192px;font-family:Kurale;-inkscape-font-specification:'Kurale, Normal';font-variant-ligatures:normal;font-variant-caps:normal;font-variant-numeric:normal;font-variant-east-asian:normal;writing-mode:lr-tb;direction:ltr;white-space:pre;shape-inside:url(#rect1);display:inline;fill:#ffa16c"><tspan
         x="537.96094"
         y="351.85761"
         id="tspan2"><tspan
           style="font-family:Aladin;-inkscape-font-specification:'Aladin, Normal'"
           id="tspan1">ravindh</tspan></tspan></text><g
       id="g3"
       transform="matrix(7.0728057,0,0,7.0728057,4.877048,75.388357)"><path
         fill="#455a64"
         d="M 11.922283,8.9987092 H 2.0715646 c -0.1664347,0 -0.3014898,-0.1372086 -0.3014898,-0.3076426 0,-0.1698188 0.1350551,-0.3076427 0.3014898,-0.3076427 h 9.8507184 c 0.16705,0 0.301797,0.1378239 0.301797,0.3076427 0,0.170434 -0.134747,0.3076426 -0.301797,0.3076426 z m -1.722995,2.8775618 0.560525,-0.253497 0.506995,1.12105 -0.560525,0.253497 z M 6.3847147,1.0000001 H 7.6152853 V 3.1534987 H 6.3847147 Z M 3.2926763,13 2.7321514,12.746503 3.2391465,11.625453 3.7996714,11.87895 Z"
         id="path1"
         style="stroke-width:1.00003;stroke-dasharray:none" /><g
         fill="#e91e63"
         transform="matrix(0.30764,0,0,0.30764,-0.38342384,-0.23057058)"
         id="g2"><circle
           cx="40"
           cy="29"
           r="2"
           id="circle1" /><circle
           cx="8"
           cy="29"
           r="2"
           id="circle2" /></g><path
         fill="#b0bec5"
         d="M 8.499758,5.225472 C 8.217342,5.5269618 7.8352498,5.7330824 7.405473,5.7918421 l 2.837388,6.1777719 0.561448,-0.255651 0.07783,-1.324709 z m -2.9964395,0 C 5.7857344,5.5269618 6.1678266,5.7330824 6.5976034,5.7918421 L 3.7602152,11.969614 3.1987673,11.713963 3.1209337,10.389254 Z"
         id="path2"
         style="fill:#ffa16c;fill-opacity:1" /><path
         fill="#78909c"
         d="m 7,2.5382134 c -1.0192201,0 -1.845856,0.8266358 -1.845856,1.8458559 0,1.0192202 0.8266359,1.845856 1.845856,1.845856 1.0192201,0 1.845856,-0.8266359 1.845856,-1.845856 C 8.845856,3.3648492 8.0192201,2.5382134 7,2.5382134 Z m 0,2.7687839 c -0.5094562,0 -0.922928,-0.4134717 -0.922928,-0.922928 0,-0.5094562 0.4134718,-0.922928 0.922928,-0.922928 0.5094562,0 0.922928,0.4134718 0.922928,0.922928 0,0.5094563 -0.4134718,0.922928 -0.922928,0.922928 z M 6.3847147,7.7681386 H 7.6152853 V 9.6139945 H 6.3847147 Z"
         id="path3"
         style="display:inline;fill:#ffa16c;fill-opacity:1;stroke-width:1.00003;stroke-dasharray:none" /></g></g></svg>
