<svg xmlns="http://www.w3.org/2000/svg" viewBox="0 0 600 180" width="600" height="180" role="img" aria-label="Aravindh Logo">
  <title>Aravindh.net Professional Logo</title>
  <desc>A highly detailed speed square forming the letter 'A' followed by the name 'ravindh'.</desc>
  <defs>
    <!-- Sophisticated Metallic Gradient -->
    <linearGradient id="metal-gradient" x1="0%" y1="0%" x2="100%" y2="100%">
      <stop offset="0%" style="stop-color:#ffa16c;stop-opacity:1" />
      <stop offset="100%" style="stop-color:#d4661b;stop-opacity:1" />
    </linearGradient>
    
    <!-- Professional Dark Wordmark -->
    <linearGradient id="text-gradient" x1="0%" y1="0%" x2="100%" y2="0%">
      <stop offset="0%" style="stop-color:#1a1a1a;stop-opacity:1" />
      <stop offset="100%" style="stop-color:#333;stop-opacity:1" />
    </linearGradient>

    <filter id="subtle-shadow" x="-5%" y="-5%" width="110%" height="110%">
      <feGaussianBlur in="SourceAlpha" stdDeviation="0.8" />
      <feOffset dx="0.5" dy="0.5" result="offsetblur" />
      <feComponentTransfer>
        <feFuncA type="linear" slope="0.15" />
      </feComponentTransfer>
      <feMerge>
        <feMergeNode />
        <feMergeNode in="SourceGraphic" />
      </feMerge>
    </filter>
  </defs>

  <!-- THE ICON: Highly Detailed Speed Square (acting as the letter 'A') -->
  <!-- Using the high-density paths from bitmap.svg -->
  <g id="speed-square-A" transform="translate(10, 20) scale(0.01)" filter="url(#subtle-shadow)">
    <!-- Primary Tool Body (Orange/Copper) -->
    <path d="m 4101.44,4503.8 v 8983.6 l 487.9,-491.7 13.87,-13.9 147.09,-148.5 15.78,-15.8 55.73,-56.2 14.58,-14.8 137.05,-138 16.27,-16.3 35.63,-35.8 16.02,-16.3 90.65,-91.4 15.78,-16 130.59,-131.5 15.78,-16 73.91,-74.4 16.02,-16.1 187.27,-188.9 14.59,-14.6 161.92,-163.3 16.5,-16.5 26.07,-26.4 15.55,-15.5 98.29,-99 14.59,-14.8 305.9,-308.3 16.26,-16.5 52.14,-52.4 17.7,-17.7 367.12,-370.2 14.11,-14.2 98.3,-99.2 14.59,-14.6 94.95,-95.9 14.59,-14.6 81.79,-82.3 15.79,-16 245.15,-247 16.26,-16.6 389.13,-392.2 19.37,-19.4 39.94,-40.1 483.12,-487 16.03,-16.3 290.34,-292.5 16.03,-16.2 182.49,-183.9 23.44,-23.7 225.29,-227 15.07,-15.3 132.26,-133.2 15.3,-15.6 41.38,-41.6 14.35,-14.3 145.18,-146.4 14.35,-14.6 44.72,-44.9 21.76,-21.8 220.04,-222 21.76,-22 86.82,-87.3 21.76,-22 504.65,-508.7 36.4,-36.6 260.4,-262.6 21.5,-21.5 138,-139.2 20.8,-21 146.4,-147.6 21.8,-22 741.4,-747.2 43.8,-44 507.2,-511.3 19.4,-19.6 85.4,-85.9 19.4,-19.6 127.2,-128.2 19.4,-19.6 134.4,-135.4 28.2,-28.4 385.6,-388.7 z m 14404.96,-1852.4 -54.8,55.2 -260.8,262.7 -37.6,38.1 -246.9,248.7 -37.6,38.1 -165.6,166.6 -37.6,38 -984.4,992.3 -84.9,85.4 -1438.7,1449.8 -42.2,42.7 -284.1,286.3 -40.3,40.9 -267.8,270.1 -41.8,41.8 -505.4,509.5 -70.5,71 -979.3,987.2 -42.2,42.7 -168.5,169.4 -42.2,42.7 -427,430.6 -42.2,42.3 -86.8,87.2 -27.8,28.3 -281.7,284 -27.9,27.9 -80.3,80.7 -29.7,30.2 -256.6,258.5 -29.2,29.7 -437.2,440.4 -45.5,46 -354.1,356.9 -31.1,31.5 -563.41,567.6 -31.09,31.6 -937.47,944.9 -77.5,77.9 -37.59,37.6 -755.08,761.1 -31.56,32.1 -475.7,479.4 -30.63,31.1 -158.72,159.6 -28.31,28.3 -184.24,186.1 -28.31,28.3 -190.74,192.6 -27.39,27.4 -712.38,718.4 -34.34,34.4 -101.18,101.6 -31.55,32 -593.58,598.2 -28.31,28.8 -190.74,192.1 -30.17,30.2 -50.59,51.1 -32.02,32 -314.19,317 -28.31,28.3 -363.38,366.6 -31.1,31.1 -143.4,144.3 -30.63,31.1 -253.4,255.3 -30.63,31.1 -175.89,177.3 -31.1,31.5 -69.14,69.6 -31.56,31.6 -265.93,267.8 -28.31,28.8 -108.13,109 -30.63,30.6 -285.42,288.2 -26.92,27 -946.75,954.1 V 1897.3 H 19254.5 l -748.1,754.1" fill="url(#metal-gradient)" />
    <!-- Secondary Shadowing / Depth paths -->
    <path d="m 18506.4,2651.4 -54.8,55.2 -260.8,262.7 -37.6,38.1 -246.9,248.7 -37.6,38.1 -165.6,166.6 -37.6,38 -984.4,992.3 -84.9,85.4 -1438.7,1449.8 -42.2,42.7 -284.1,286.3 -40.3,40.9 -267.8,270.1 -41.8,41.8 -505.4,509.5 -70.5,71 -979.3,987.2 -42.2,42.7 -168.5,169.4 -42.2,42.7 -427,430.6 -42.2,42.3 -86.8,87.2 -27.8,28.3 -281.7,284 -27.9,27.9 -80.3,80.7 -29.7,30.2 -256.6,258.5 -29.2,29.7 -437.2,440.4 -45.5,46 -354.1,356.9 -31.1,31.5 -563.41,567.6 -31.09,31.6 -937.47,944.9 -77.5,77.9 -37.59,37.6 -755.08,761.1 -31.56,32.1 -475.7,479.4 -30.63,31.1 -158.72,159.6 -28.31,28.3 -184.24,186.1 -28.31,28.3 -190.74,192.6 -27.39,27.4 -712.38,718.4 -34.34,34.4 -101.18,101.6 -31.55,32 -593.58,598.2 -28.31,28.8 -190.74,192.1 -30.17,30.2 -50.59,51.1 -32.02,32 -314.19,317 -28.31,28.3 -363.38,366.6 -31.1,31.1 -143.4,144.3 -30.63,31.1 -253.4,255.3 -30.63,31.1 -175.89,177.3 -31.1,31.5 -69.14,69.6 -31.56,31.6 -265.93,267.8 -28.31,28.8 -108.13,109 -30.63,30.6 -285.42,288.2 -26.92,27 -946.75,954.1 v -2337.3 l 125.64,-126.6 27.17,-27.6 127.17,-127.9 27.56,-27.6 322.24,-325.1 25.11,-25.1 278.62,-281.1 28.39,-28.4 44.86,-45.3 26.75,-26.7 169.14,-170.4 25.11,-25.5 526.36,-530.5 27.99,-28.4 89.72,-90.1 30.45,-30.5 631.72,-637.1 24.28,-24.3 169.15,-170.7 25.1,-25.1 163.38,-165.1 25.11,-25.1 140.74,-141.6 27.17,-27.5 421.83,-425.1 27.99,-28.4 669.58,-675 33.33,-33.3 68.73,-69.2 831.32,-837.9 27.57,-27.9 499.62,-503.4 27.57,-27.9 314.01,-316.5 40.33,-40.8 387.68,-390.5 25.92,-26.4 227.59,-229.2 26.34,-26.7 71.19,-71.7 24.69,-24.6 249.81,-251.9 24.7,-25.1 76.95,-77.4 37.46,-37.4 378.62,-382 37.45,-37.8 149.38,-150.2 37.46,-37.9 868.37,-875.3 62.5,-63 448.2,-451.9 37.1,-37 237.4,-239.5 35.8,-36.3 251.9,-253.9 37.4,-37.8 1275.8,-1285.7 75.3,-75.7 872.9,-879.9 33.4,-33.8 146.9,-147.7 33.3,-33.8 219,-220.5 33.3,-33.8 231.3,-232.9 48.5,-49 663.4,-668.8 H 1958.68 V 1897.3 H 19254.5 l -748.1,754.1" fill="#000" opacity="0.1" />
    <!-- Ruler Markings -->
    <path d="m 2390.38,2160.3 h -431.7 v 114 h 431.7 v -114" fill="#393536" />
    <path d="m 2390.38,2448.1 h -431.7 v 114 h 431.7 v -114" fill="#393536" />
    <path d="m 2390.38,2735.9 h -431.7 v 114 h 431.7 v -114" fill="#393536" />
    <path d="m 2390.38,3023.8 h -431.7 v 113.9 h 431.7 v -113.9" fill="#393536" />
    <path d="m 2714.1,3311.6 h -755.42 v 114 h 755.42 v -114" fill="#393536" />
    <path d="m 2714.1,1897.3 h -755.42 v 113.9 h 755.42 v -113.9" fill="#393536" />
    <path d="m 2390.38,3644.2 h -431.7 v 114 h 431.7 v -114" fill="#393536" />
    <path d="m 2390.38,3932 h -431.7 v 114 h 431.7 v -114" fill="#393536" />
    <path d="m 2390.38,4219.8 h -431.7 v 114 h 431.7 v -114" fill="#393536" />
    <path d="m 2390.38,4507.7 h -431.7 v 114 h 431.7 v -114" fill="#393536" />
    <path d="m 2714.1,4795.5 h -755.42 v 114 h 755.42 v -114" fill="#393536" />
    <path d="m 2390.38,5128.1 h -431.7 v 114 h 431.7 v -114" fill="#393536" />
    <path d="m 2390.38,5415.9 h -431.7 v 114 h 431.7 v -114" fill="#393536" />
    <path d="m 2390.38,5703.7 h -431.7 v 114 h 431.7 v -114" fill="#393536" />
    <path d="m 2390.38,5991.6 h -431.7 v 114 h 431.7 v -114" fill="#393536" />
    <path d="m 2714.1,6279.4 h -755.42 v 114 h 755.42 v -114" fill="#393536" />
    <path d="m 2390.38,6612 h -431.7 v 114 h 431.7 v -114" fill="#393536" />
    <path d="m 2390.38,6899.8 h -431.7 v 114 h 431.7 v -114" fill="#393536" />
    <path d="m 2390.38,7187.6 h -431.7 v 114 h 431.7 v -114" fill="#393536" />
    <path d="m 2390.38,7475.5 h -431.7 v 114 h 431.7 v -114" fill="#393536" />
    <path d="m 2714.1,7763.3 h -755.42 v 114 h 755.42 v -114" fill="#393536" />
    <path d="m 2390.38,8095.9 h -431.7 v 114 h 431.7 v -114" fill="#393536" />
    <path d="m 2390.38,8383.7 h -431.7 v 114 h 431.7 v -114" fill="#393536" />
    <path d="m 2390.38,8671.6 h -431.7 v 113.9 h 431.7 v -113.9" fill="#393536" />
    <path d="m 2390.38,8959.4 h -431.7 v 114 h 431.7 v -114" fill="#393536" />
    <path d="m 2714.1,9247.2 h -755.42 v 114 h 755.42 v -114" fill="#393536" />
    <path d="m 2390.38,9579.8 h -431.7 v 114 h 431.7 v -114" fill="#393536" />
    <path d="m 2390.38,9867.6 h -431.7 v 114 h 431.7 v -114" fill="#393536" />
    <path d="m 2390.38,10155.4 h -431.7 v 114 h 431.7 v -114" fill="#393536" />
    <path d="m 2390.38,10443.3 h -431.7 v 114 h 431.7 v -114" fill="#393536" />
    <path d="m 2714.1,10731.1 h -755.42 v 114 h 755.42 v -114" fill="#393536" />
    <path d="m 2390.38,11063.7 h -431.7 v 114 h 431.7 v -114" fill="#393536" />
    <path d="m 2390.38,11351.5 h -431.7 v 114 h 431.7 v -114" fill="#393536" />
    <path d="m 2390.38,11639.4 h -431.7 v 113.9 h 431.7 v -113.9" fill="#393536" />
    <path d="m 2390.38,11927.2 h -431.7 v 114 h 431.7 v -114" fill="#393536" />
    <path d="m 2714.1,12215 h -755.42 v 114 h 755.42 v -114" fill="#393536" />
    <path d="m 2390.38,12547.6 h -431.7 v 114 h 431.7 v -114" fill="#393536" />
    <path d="m 2390.38,12835.4 h -431.7 v 114 h 431.7 v -114" fill="#393536" />
    <path d="m 2390.38,13123.3 h -431.7 v 113.9 h 431.7 v -113.9" fill="#393536" />
    <path d="m 2390.38,13411.1 h -431.7 v 114 h 431.7 v -114" fill="#393536" />
    <path d="m 2714.1,13698.9 h -755.42 v 114 h 755.42 v -114" fill="#393536" />
    <path d="m 2390.38,14031.5 h -431.7 v 114 h 431.7 v -114" fill="#393536" />
    <path d="m 2390.38,14319.3 h -431.7 v 114 h 431.7 v -114" fill="#393536" />
    <path d="m 2390.38,14607.2 h -431.7 v 113.9 h 431.7 v -113.9" fill="#393536" />
    <path d="m 2390.38,14895 h -431.7 v 114 h 431.7 v -114" fill="#393536" />
    <path d="m 2714.1,15182.8 h -755.42 v 114 h 755.42 v -114" fill="#393536" />
    <path d="m 2390.38,15515.4 h -431.7 v 114 h 431.7 v -114" fill="#393536" />
    <path d="m 2390.38,15803.2 h -431.7 v 114 h 431.7 v -114" fill="#393536" />
    <path d="m 2390.38,16091.1 h -431.7 v 113.9 h 431.7 v -113.9" fill="#393536" />
    <path d="m 2390.38,16378.9 h -431.7 v 114 h 431.7 v -114" fill="#393536" />
    <path d="m 2714.1,16666.7 h -755.42 v 114 h 755.42 v -114" fill="#393536" />
    <path d="m 2390.38,16999.3 h -431.7 v 114 h 431.7 v -114" fill="#393536" />
    <path d="m 2390.38,17287.1 h -431.7 v 114 h 431.7 v -114" fill="#393536" />
    <path d="m 2390.38,17575 h -431.7 v 113.9 h 431.7 v -113.9" fill="#393536" />
    <path d="m 2390.38,17862.8 h -431.7 v 114 h 431.7 v -114" fill="#393536" />
    <path d="m 2714.1,18150.6 h -755.42 v 114 h 755.42 v -114" fill="#393536" />
    <!-- White Highlight Overlay -->
    <path d="m 3365.33,16780.7 c 0,0 129.97,-121.7 357.4,-334.6 226.4,-213.9 548.79,-520.5 931.7,-892.4 191.68,-185.7 399.34,-386.9 616.95,-601.7 218.04,-214.4 448.73,-439.7 684.51,-675.6 235.95,-235.7 481.82,-477.3 727.9,-726.5 246.61,-248.6 497.13,-501.2 747.65,-753.8 248.89,-254.2 497.77,-508.4 742.77,-758.6 245.76,-249.5 483.45,-499.1 715.72,-738.5 232.36,-239.3 454.42,-473.1 665.43,-694.4 211.5,-220.8 409.71,-431.3 592.44,-625.8 366.2,-388.3 668,-715.3 878.5,-944.9 209.5,-230.6 329.2,-362.3 329.2,-362.3 0,0 -130,121.6 -357.5,334.5 -226.4,213.9 -548.9,520.4 -931.8,892.3 -191.77,185.6 -399.31,386.9 -616.96,601.7 -218.15,214.2 -448.66,439.7 -684.48,675.6 -235.89,235.8 -481.99,477.1 -727.8,726.5 -246.59,248.7 -497.09,501.3 -747.58,753.9 -248.87,254.3 -497.73,508.5 -742.71,758.8 -245.49,249.7 -483.4,499.1 -715.63,738.5 -232.38,239.3 -454.26,473.2 -665.38,694.4 -211.55,220.8 -409.64,431.4 -592.49,625.8 -366.18,388.4 -668.01,715.3 -878.57,944.8 -209.53,230.6 -329.27,362.3 -329.27,362.3" fill="#ffffff" opacity="0.95" />
  </g>

  <!-- THE WORDMARK: "ravindh" (Carefully re-positioned and completed) -->
  <g id="wordmark" transform="translate(180, 55) scale(0.65)" fill="url(#text-gradient)">
    <!-- r -->
    <path d="M22 15V45h6V22c0-4 3-7 7-7h4v-6h-4c-6 0-11 5-11 11V15h-2z" transform="translate(0, 0)"/>
    <!-- a -->
    <path d="M55 12c-8 0-15 7-15 15s7 15 15 15 15-7 15-15-7-15-15-15zm0 24c-5 0-9-4-9-9s4-9 9-9 9 4 9 9-4 9-9 9z" transform="translate(35, 0)"/>
    <!-- v -->
    <path d="M85 15l10 30 10-30h-6l-4 12-4-12h-6z" transform="translate(65, 0)"/>
    <!-- i -->
    <path d="M120 15V45h6V15h-6z M120 5v6h6V5h-6z" transform="translate(90, 0)"/>
    <!-- n -->
    <path d="M145 15V45h6V25c0-4 3-7 7-7s7 3 7 7v20h6V25c0-8-6-14-14-14s-11 5-11 11V15h-1z" transform="translate(110, 0)"/>
    <!-- d -->
    <path d="M205 0v45h6V35c2 4 6 7 10 7 8 0 15-7 15-15s-7-15-15-15c-4 0-8 3-10 7V0h-6zm16 12c5 0 9 4 9 9s-4 9-9 9-9-4-9-9 4-9 9-9z" transform="translate(145, 0)"/>
    <!-- h -->
    <path d="M255 0v45h6V25c0-4 3-7 7-7s7 3 7 7v20h6V25c0-8-6-14-14-14s-11 5-11 11V0h-1z" transform="translate(185, 0)"/>
    <!-- .net -->
    <g transform="translate(480, 0) scale(0.8)">
      <circle cx="0" cy="40" r="3" />
      <!-- n -->
      <path d="M20 15V45h6V25c0-4 3-7 7-7s7 3 7 7v20h6V25c0-8-6-14-14-14s-11 5-11 11V15z" transform="translate(10, 0)"/>
      <!-- e -->
      <path d="M75 15c-8 0-15 7-15 15s7 15 15 15 15-7 15-15v-3H66c.5-4 4-7 8-7 3 0 6 2 8 5l5-3c-2-5-7-8-12-8zm-8 15c.5 4 4 7 8 7 4 0 7.5-3 8-7H67z" transform="translate(30, 0)"/>
      <!-- t -->
      <path d="M110 15v5h-5v20c0 4 3 7 7 7h3v-5h-3c-1.5 0-3-1.5-3-3V20h6v-5h-6V5h-6v10z" transform="translate(45, 0)"/>
    </g>
  </g>
</svg>