<svg xmlns="http://www.w3.org/2000/svg" viewBox="0 0 450 150" width="450" height="150" role="img" aria-label="Aravindh.net Logo">
  <title>Aravindh.net Professional Logo</title>
  <desc>A refined combination of the original icon and clean script typography.</desc>
  <defs>
    <!-- Elegant Brand Gradient (Copper/Orange theme from source) -->
    <linearGradient id="brand-gradient" x1="0%" y1="0%" x2="100%" y2="100%">
      <stop offset="0%" style="stop-color:#ffa16c;stop-opacity:1" />
      <stop offset="100%" style="stop-color:#d4661b;stop-opacity:1" />
    </linearGradient>
    
    <!-- Dark Mode / Professional Text Color -->
    <linearGradient id="text-gradient" x1="0%" y1="0%" x2="100%" y2="0%">
      <stop offset="0%" style="stop-color:#2d2d2d;stop-opacity:1" />
      <stop offset="100%" style="stop-color:#1a1a1a;stop-opacity:1" />
    </linearGradient>

    <!-- Subtle Depth Filter -->
    <filter id="subtle-glow" x="-20%" y="-20%" width="140%" height="140%">
      <feGaussianBlur in="SourceAlpha" stdDeviation="1.5" />
      <feOffset dx="0" dy="1" result="offsetblur" />
      <feComponentTransfer>
        <feFuncA type="linear" slope="0.3" />
      </feComponentTransfer>
      <feMerge>
        <feMergeNode />
        <feMergeNode in="SourceGraphic" />
      </feMerge>
    </filter>
  </defs>

  <!-- THE ICON: Optimized and Rescaled from Bitmap.svg -->
  <g id="icon" transform="translate(20, 25) scale(0.0075)" filter="url(#subtle-glow)">
    <!-- Main Icon Paths (preserving the unique geometry of the source) -->
    <path d="m 4101.44,4503.8 v 8983.6 l 487.9,-491.7 13.87,-13.9 147.09,-148.5 15.78,-15.8 55.73,-56.2 14.58,-14.8 137.05,-138 16.27,-16.3 35.63,-35.8 16.02,-16.3 90.65,-91.4 15.78,-16 130.59,-131.5 15.78,-16 73.91,-74.4 16.02,-16.1 187.27,-188.9 14.59,-14.6 161.92,-163.3 16.5,-16.5 26.07,-26.4 15.55,-15.5 98.29,-99 14.59,-14.8 305.9,-308.3 16.26,-16.5 52.14,-52.4 17.7,-17.7 367.12,-370.2 14.11,-14.2 98.3,-99.2 14.59,-14.6 94.95,-95.9 14.59,-14.6 81.79,-82.3 15.79,-16 245.15,-247 16.26,-16.6 389.13,-392.2 19.37,-19.4 39.94,-40.1 483.12,-487 16.03,-16.3 290.34,-292.5 16.03,-16.2 182.49,-183.9 23.44,-23.7 225.29,-227 15.07,-15.3 132.26,-133.2 15.3,-15.6 41.38,-41.6 14.35,-14.3 145.18,-146.4 14.35,-14.6 44.72,-44.9 21.76,-21.8 220.04,-222 21.76,-22 86.82,-87.3 21.76,-22 504.65,-508.7 36.4,-36.6 260.4,-262.6 21.5,-21.5 138,-139.2 20.8,-21 146.4,-147.6 21.8,-22 741.4,-747.2 43.8,-44 507.2,-511.3 19.4,-19.6 85.4,-85.9 19.4,-19.6 127.2,-128.2 19.4,-19.6 134.4,-135.4 28.2,-28.4 385.6,-388.7 z" fill="url(#brand-gradient)" />
    <path d="m 18506.4,2651.4 -54.8,55.2 -260.8,262.7 -37.6,38.1 -246.9,248.7 -37.6,38.1 -165.6,166.6 -37.6,38 -984.4,992.3 -84.9,85.4 -1438.7,1449.8 -42.2,42.7 -284.1,286.3 -40.3,40.9 -267.8,270.1 -41.8,41.8 -505.4,509.5 -70.5,71 -979.3,987.2 -42.2,42.7 -168.5,169.4 -42.2,42.7 -427,430.6 -42.2,42.3 -86.8,87.2 -27.8,28.3 -281.7,284 -27.9,27.9 -80.3,80.7 -29.7,30.2 -256.6,258.5 -29.2,29.7 -437.2,440.4 -45.5,46 -354.1,356.9 -31.1,31.5 -563.41,567.6 -31.09,31.6 -937.47,944.9 -77.5,77.9 -37.59,37.6 -755.08,761.1 -31.56,32.1 -475.7,479.4 -30.63,31.1 -158.72,159.6 -28.31,28.3 -184.24,186.1 -28.31,28.3 -190.74,192.6 -27.39,27.4 -712.38,718.4 -34.34,34.4 -101.18,101.6 -31.55,32 -593.58,598.2 -28.31,28.8 -190.74,192.1 -30.17,30.2 -50.59,51.1 -32.02,32 -314.19,317 -28.31,28.3 -363.38,366.6 -31.1,31.1 -143.4,144.3 -30.63,31.1 -253.4,255.3 -30.63,31.1 -175.89,177.3 -31.1,31.5 -69.14,69.6 -31.56,31.6 -265.93,267.8 -28.31,28.8 -108.13,109 -30.63,30.6 -285.42,288.2 -26.92,27 -946.75,954.1 v -2337.3 l 125.64,-126.6 27.17,-27.6 127.17,-127.9 27.56,-27.6 322.24,-325.1 25.11,-25.1 278.62,-281.1 28.39,-28.4 44.86,-45.3 26.75,-26.7 169.14,-170.4 25.11,-25.5 526.36,-530.5 27.99,-28.4 89.72,-90.1 30.45,-30.5 631.72,-637.1 24.28,-24.3 169.15,-170.7 25.1,-25.1 163.38,-165.1 25.11,-25.1 140.74,-141.6 27.17,-27.5 421.83,-425.1 27.99,-28.4 669.58,-675 33.33,-33.3 68.73,-69.2 831.32,-837.9 27.57,-27.9 499.62,-503.4 27.57,-27.9 314.01,-316.5 40.33,-40.8 387.68,-390.5 25.92,-26.4 227.59,-229.2 26.34,-26.7 71.19,-71.7 24.69,-24.6 249.81,-251.9 24.7,-25.1 76.95,-77.4 37.46,-37.4 378.62,-382 37.45,-37.8 149.38,-150.2 37.46,-37.9 868.37,-875.3 62.5,-63 448.2,-451.9 37.1,-37 237.4,-239.5 35.8,-36.3 251.9,-253.9 37.4,-37.8 1275.8,-1285.7 75.3,-75.7 872.9,-879.9 33.4,-33.8 146.9,-147.7 33.3,-33.8 219,-220.5 33.3,-33.8 231.3,-232.9 48.5,-49 663.4,-668.8 H 1958.68 V 1897.3 H 19254.5 l -748.1,754.1" fill="url(#brand-gradient)" opacity="0.8" />
  </g>

  <!-- THE WORDMARK: "aravindh.net" (Custom Path Outlines) -->
  <g id="wordmark" transform="translate(145, 100)" fill="url(#text-gradient)">
    <!-- 'a' -->
    <path d="M10.5 0c-4.1 0-7.5 3.4-7.5 7.5s3.4 7.5 7.5 7.5c1.8 0 3.4-.6 4.7-1.7V15h3.5V7.5C18.7 3.4 15.3 0 11.2 0h-.7zm0 2.5c2.8 0 5 2.2 5 5s-2.2 5-5 5-5-2.2-5-5 2.2-5 5-5z" transform="scale(3) translate(0, -5)"/>
    <!-- 'r' -->
    <path d="M22 2.5v12.5h3.5V8.5c0-1.7 1.3-3 3-3h1.5V2.5h-1.5c-2.8 0-5 2.2-5 5V2.5h-1.5z" transform="scale(3) translate(5, -5)"/>
    <!-- 'a' -->
    <path d="M40.5 0c-4.1 0-7.5 3.4-7.5 7.5s3.4 7.5 7.5 7.5c1.8 0 3.4-.6 4.7-1.7V15h3.5V7.5c0-4.1-3.4-7.5-7.5-7.5h-.7zm0 2.5c2.8 0 5 2.2 5 5s-2.2 5-5 5-5-2.2-5-5 2.2-5 5-5z" transform="scale(3) translate(10, -5)"/>
    <!-- 'v' -->
    <path d="M55 2.5l5 12.5 5-12.5h-3.5l-1.5 4.5-1.5-4.5H55z" transform="scale(3) translate(15, -5)"/>
    <!-- 'i' -->
    <path d="M70 2.5v12.5h3.5V2.5H70z M70 0v1.5h3.5V0H70z" transform="scale(3) translate(19, -5)"/>
    <!-- 'n' -->
    <path d="M80 2.5v12.5h3.5V8.5c0-1.7 1.3-3 3-3s3 1.3 3 3v6.5h3.5V8.5c0-3.6-2.9-6.5-6.5-6.5s-5 2.2-5 5V2.5h-1.5z" transform="scale(3) translate(22, -5)"/>
    <!-- 'd' -->
    <path d="M105.5 0c-4.1 0-7.5 3.4-7.5 7.5s3.4 7.5 7.5 7.5c1.8 0 3.4-.6 4.7-1.7V15h3.5V0h-8.2zm0 2.5c2.8 0 5 2.2 5 5s-2.2 5-5 5-5-2.2-5-5 2.2-5 5-5z" transform="scale(3) translate(28, -5)"/>
    <!-- 'h' -->
    <path d="M125 0v15h3.5V8.5c0-1.7 1.3-3 3-3s3 1.3 3 3v6.5h3.5V8.5c0-3.6-2.9-6.5-6.5-6.5s-5 2.2-5 5V0h-1.5z" transform="scale(3) translate(34, -5)"/>
    <!-- '.' -->
    <path d="M145 12.5v2.5h2.5v-2.5h-2.5z" transform="scale(3) translate(38, -5)"/>
    <!-- 'n' -->
    <path d="M155 2.5v12.5h3.5V8.5c0-1.7 1.3-3 3-3s3 1.3 3 3v6.5h3.5V8.5c0-3.6-2.9-6.5-6.5-6.5s-5 2.2-5 5V2.5h-1.5z" transform="scale(3) translate(40, -5)"/>
    <!-- 'e' -->
    <path d="M175.5 2.5c-4.1 0-7.5 3.4-7.5 7.5s3.4 7.5 7.5 7.5 7.5-3.4 7.5-7.5v-1.5h-11.5c.3-2 2.1-3.5 4.3-3.5 1.8 0 3.3 1 4.1 2.5l2.5-1.5c-1.3-2.5-3.8-4-6.6-4zm-4 7.5c.3 2 2.1 3.5 4.3 3.5 2.2 0 4-1.5 4.3-3.5h-8.6z" transform="scale(3) translate(45, -5)"/>
    <!-- 't' -->
    <path d="M190 2.5v2.5h-2.5V8.5c0 1.7 1.3 3 3 3h1.5v2.5h-1.5c-3.6 0-6.5-2.9-6.5-6.5V5h-2.5V2.5h2.5V0h3.5v2.5h2.5z" transform="scale(3) translate(50, -5)"/>
  </g>
</svg>