<svg version="1.1" id="Layer_1" xmlns="http://www.w3.org/2000/svg" xmlns:xlink="http://www.w3.org/1999/xlink" x="0px" y="0px"
	 width="100%" viewBox="0 0 2000 2000" enable-background="new 0 0 2000 2000" xml:space="preserve">
<path fill="#FFFFFF" opacity="1.000000" stroke="none" 
	d="
M1077.000000,2001.000000 
	C718.000000,2001.000000 359.500000,2001.000000 1.000000,2001.000000 
	C1.000000,1334.333374 1.000000,667.666687 1.000000,1.000000 
	C667.666687,1.000000 1334.333374,1.000000 2001.000000,1.000000 
	C2001.000000,667.666687 2001.000000,1334.333374 2001.000000,2001.000000 
	C1693.166626,2001.000000 1385.333374,2001.000000 1077.000000,2001.000000 
M455.337006,763.458435 
	C455.335693,747.629578 455.392151,731.800476 455.307922,715.972046 
	C455.267517,708.376770 451.818939,705.016357 444.270966,704.971191 
	C435.440460,704.918335 426.609314,704.935608 417.778625,704.965698 
	C409.385193,704.994385 406.071533,708.348816 406.058990,716.866150 
	C406.034180,733.694641 405.954834,750.524170 406.128662,767.350891 
	C406.165436,770.910889 405.342804,772.728027 401.808044,774.406311 
	C366.767883,791.043701 353.005157,833.051147 371.351959,867.090210 
	C372.905853,869.973206 372.929138,871.913513 371.329773,874.749573 
	C358.423767,897.635254 345.717773,920.633606 332.935272,943.589050 
	C332.233856,944.848633 331.394806,946.031555 330.295868,947.759644 
	C321.299988,942.388489 312.600464,937.206909 303.913940,932.003662 
	C297.990173,928.455261 293.239258,929.346924 289.274658,935.013611 
	C284.981567,941.149658 280.804199,947.368103 276.649902,953.599609 
	C272.177429,960.308594 273.080627,965.238953 279.941162,969.535706 
	C289.362366,975.436340 298.962189,981.051636 308.780151,986.966675 
	C304.044678,995.469055 299.105927,1004.122009 294.369476,1012.884399 
	C283.912628,1032.229248 284.691681,1025.197388 291.311920,1045.593750 
	C292.399719,1048.945312 292.174866,1051.411743 290.467194,1054.401367 
	C282.880035,1067.684326 275.503754,1081.088013 268.095612,1094.472656 
	C264.497223,1100.974121 265.439270,1106.286621 270.595490,1109.245605 
	C275.805969,1112.235718 281.161316,1110.119019 284.845978,1103.547241 
	C288.912231,1096.294922 292.923248,1089.011841 296.972992,1081.750122 
	C298.123993,1079.686279 299.326080,1077.650879 301.111664,1074.547607 
	C302.779541,1080.882202 305.246399,1085.063110 311.281128,1085.258057 
	C317.730927,1085.466553 319.816895,1080.496826 322.341156,1075.954346 
	C334.456818,1054.150757 346.715027,1032.425537 358.678528,1010.539185 
	C360.578278,1007.063721 362.391174,1006.495117 366.074738,1007.400574 
	C409.232513,1018.009399 452.453308,1017.956116 495.602844,1007.397400 
	C499.525787,1006.437439 501.114746,1007.436584 502.910583,1010.713623 
	C514.097839,1031.129028 525.494080,1051.429810 536.824219,1071.766846 
	C538.523376,1074.816895 540.055725,1077.979736 541.984741,1080.877808 
	C546.294495,1087.352905 555.241211,1086.681641 558.624573,1079.713379 
	C559.301392,1078.319580 559.768372,1076.823853 560.588623,1074.715820 
	C566.337219,1085.052124 571.705078,1094.792114 577.161499,1104.482056 
	C580.552185,1110.503662 585.751709,1112.455322 590.785583,1109.758789 
	C595.938354,1106.998535 597.156067,1101.272583 593.756104,1095.100220 
	C588.219971,1085.050049 583.282959,1074.577759 576.825073,1065.152466 
	C569.918091,1055.071411 567.898376,1045.436768 573.941040,1034.458252 
	C576.043030,1030.639282 574.982117,1026.798950 572.866028,1023.079102 
	C566.699585,1012.239563 560.683472,1001.314453 554.628540,990.411682 
	C553.938599,989.169434 553.376404,987.856140 552.904175,986.883118 
	C562.816650,980.889343 572.427124,975.264343 581.838318,969.323547 
	C588.395020,965.184692 589.245850,960.159363 584.913452,953.663696 
	C581.126953,947.986511 577.251038,942.368835 573.400208,936.734680 
	C567.901794,928.690308 563.924011,928.057739 555.535034,933.282837 
	C547.537109,938.264282 539.331970,942.913086 531.252930,947.687500 
	C530.418823,946.600830 530.072205,946.248718 529.840088,945.832581 
	C516.395081,921.724304 502.912903,897.636292 489.640503,873.433228 
	C488.856018,872.002625 489.150116,869.312622 489.979126,867.763550 
	C507.957794,834.169189 495.699554,793.084595 461.981659,775.648682 
	C456.837036,772.988342 454.069275,770.261353 455.337006,763.458435 
M657.027405,933.511353 
	C657.027405,989.113770 657.027405,1044.716187 657.027405,1100.368896 
	C660.483521,1100.368896 663.697571,1100.368896 667.078857,1100.368896 
	C667.078857,1098.560547 667.099670,1097.076538 667.075806,1095.593262 
	C666.737976,1074.607056 666.266724,1053.621826 666.113586,1032.634155 
	C666.051392,1024.106445 667.488281,1022.442871 675.720337,1021.931763 
	C688.175842,1021.158386 700.666626,1020.872314 713.146851,1020.700684 
	C714.422119,1020.683105 716.363037,1022.616638 716.910706,1024.057129 
	C719.506836,1030.884888 721.545227,1037.923950 724.118591,1044.761353 
	C729.385132,1058.754272 734.269775,1072.961426 743.261719,1085.185059 
	C754.569458,1100.556519 772.589783,1106.630615 790.577087,1101.063843 
	C791.940857,1100.641846 793.836975,1099.012207 793.910034,1097.845215 
	C794.260071,1092.256592 794.067139,1086.633789 794.067139,1080.666748 
	C791.971619,1081.329346 790.408203,1081.824707 788.844299,1082.318359 
	C769.551331,1088.407227 756.009827,1083.665771 745.081055,1066.618652 
	C736.052002,1052.534912 730.523682,1036.866455 724.693115,1020.658203 
	C727.283081,1020.464355 729.386841,1020.289551 731.493042,1020.151733 
	C762.058594,1018.151855 780.095764,1000.486755 782.637146,970.056335 
	C785.421631,936.714905 765.150513,912.358948 731.762573,910.844360 
	C707.160706,909.728394 682.470459,910.559509 657.819580,910.548340 
	C657.565674,910.548218 657.311646,910.890076 657.020447,911.098999 
	C657.020447,918.229736 657.020447,925.373352 657.027405,933.511353 
M1428.014282,1067.475952 
	C1428.014282,1078.411865 1428.014282,1089.347778 1428.014282,1100.123169 
	C1452.561768,1100.123169 1477.031128,1100.903320 1501.430054,1099.925415 
	C1531.801025,1098.708130 1552.117188,1080.136353 1556.983887,1050.282837 
	C1561.622803,1021.827087 1561.541992,993.129150 1557.646851,964.672546 
	C1553.296631,932.891174 1534.010132,911.631592 1498.970703,910.850464 
	C1475.835327,910.334717 1452.683960,910.533142 1429.539551,910.441040 
	C1428.940430,910.438660 1428.340088,910.776428 1428.026245,910.870178 
	C1428.026245,962.948608 1428.026245,1014.716064 1428.014282,1067.475952 
M1247.710815,1053.535767 
	C1247.710815,1069.147461 1247.710815,1084.759155 1247.710815,1100.338867 
	C1250.675537,1100.338867 1254.082520,1100.338867 1257.720947,1100.338867 
	C1257.720947,1098.999268 1257.731812,1098.020508 1257.719360,1097.041992 
	C1257.132080,1050.562012 1256.516846,1004.082397 1255.992432,957.601746 
	C1255.938110,952.784668 1256.116699,947.922546 1256.725952,943.150146 
	C1257.703979,935.487488 1260.207520,933.391418 1267.759033,933.105225 
	C1270.421509,933.004272 1273.089966,933.033875 1275.755493,933.051270 
	C1290.077759,933.144775 1291.036377,933.375854 1294.989258,947.242493 
	C1305.241211,983.206726 1315.061523,1019.294189 1325.010986,1055.344360 
	C1329.159668,1070.376831 1333.198242,1085.439697 1337.260010,1100.389648 
	C1351.085327,1100.389648 1364.492065,1100.389648 1378.243896,1100.389648 
	C1378.243896,1037.015869 1378.243896,973.951111 1378.243896,910.782898 
	C1374.847656,910.782898 1371.307251,910.782898 1367.682251,910.782898 
	C1367.607910,911.815369 1367.509888,912.467407 1367.521362,913.117493 
	C1368.148560,948.602173 1368.911499,984.085083 1369.363770,1019.571960 
	C1369.569580,1035.725708 1369.293701,1051.889771 1368.974609,1068.043945 
	C1368.834229,1075.147949 1366.927979,1076.876465 1359.983521,1077.242432 
	C1356.499756,1077.426270 1352.994751,1077.157837 1349.501221,1077.213623 
	C1343.477783,1077.309570 1339.815918,1074.271362 1338.080811,1068.707642 
	C1336.002686,1062.044067 1333.852905,1055.396240 1332.015015,1048.665039 
	C1319.973633,1004.564636 1307.915894,960.468018 1296.149780,916.293945 
	C1294.866821,911.477112 1292.899048,910.095398 1288.113525,910.277954 
	C1278.130493,910.658813 1268.122681,910.393188 1258.125122,910.393188 
	C1254.523560,910.393188 1250.921875,910.393250 1247.737915,910.393250 
	C1247.737915,958.262573 1247.737915,1005.405396 1247.710815,1053.535767 
M824.178955,1025.489624 
	C821.298218,1050.399170 818.417480,1075.308716 815.513611,1100.418701 
	C818.765320,1100.418701 822.009705,1100.418701 825.558838,1100.418701 
	C825.705078,1098.555298 825.797241,1096.929077 825.965332,1095.310913 
	C827.236755,1083.069458 828.249268,1070.792847 829.886902,1058.600342 
	C831.327820,1047.872192 832.474243,1047.136230 843.058594,1046.254883 
	C843.556396,1046.213379 844.055908,1046.166870 844.554626,1046.166870 
	C868.868042,1046.166260 893.184509,1045.946533 917.493652,1046.268921 
	C929.651184,1046.430176 930.288086,1047.451050 932.428650,1059.571045 
	C932.660034,1060.880859 932.883423,1062.196533 933.015625,1063.518921 
	C934.236511,1075.735474 935.436462,1087.954224 936.661804,1100.368164 
	C939.924438,1100.368164 943.309143,1100.368164 947.041870,1100.368164 
	C937.604431,1037.263916 932.727295,974.085022 928.857666,910.751587 
	C896.778076,910.751587 865.067993,910.751587 833.209473,910.751587 
	C832.463440,922.218262 831.884827,933.351685 830.987427,944.459290 
	C828.828979,971.172913 826.521179,997.874390 824.178955,1025.489624 
M1600.997925,935.569275 
	C1600.997925,990.498718 1600.997925,1045.428223 1600.997925,1100.401855 
	C1604.272827,1100.401855 1607.364990,1100.401855 1610.838135,1100.401855 
	C1610.838135,1098.319092 1610.855835,1096.524536 1610.835449,1094.730469 
	C1610.564209,1070.902344 1610.251343,1047.074585 1610.032104,1023.245972 
	C1609.956909,1015.079407 1611.729248,1012.503113 1619.979126,1012.018860 
	C1636.260254,1011.063171 1652.586060,1010.516541 1668.894775,1010.486084 
	C1683.870850,1010.458130 1698.873657,1010.954163 1713.816284,1011.947632 
	C1722.881958,1012.550354 1724.285522,1014.714844 1724.231812,1023.690552 
	C1724.089111,1047.520508 1723.858276,1071.349731 1723.666016,1095.179321 
	C1723.651855,1096.935181 1723.664307,1098.691284 1723.664307,1100.421753 
	C1727.447021,1100.421753 1730.553711,1100.421753 1733.470215,1100.421753 
	C1733.470215,1037.072021 1733.470215,973.994995 1733.470215,910.658691 
	C1730.559937,910.658691 1727.476685,910.658691 1723.944946,910.658691 
	C1723.944946,912.655884 1723.927368,914.446289 1723.947632,916.236389 
	C1724.185791,937.231689 1724.478394,958.226685 1724.644653,979.222534 
	C1724.702515,986.534424 1723.088379,988.467102 1715.788086,989.107056 
	C1707.833374,989.804382 1699.828857,990.346313 1691.850952,990.288757 
	C1667.706299,990.114502 1643.557373,989.839844 1619.424438,989.120361 
	C1611.396606,988.881042 1609.948364,986.686096 1610.030151,978.808777 
	C1610.244995,958.146912 1610.551636,937.486023 1610.815186,916.824646 
	C1610.840210,914.867920 1610.818481,912.910522 1610.818481,910.780212 
	C1607.226318,910.780212 1604.026489,910.780212 1600.990479,910.780212 
	C1600.990479,918.973083 1600.990479,926.783325 1600.997925,935.569275 
M1103.501709,947.252258 
	C1105.903809,935.120300 1108.305908,922.988403 1110.738892,910.700562 
	C1106.425659,910.700562 1102.850098,910.700562 1099.084229,910.700562 
	C1096.694458,924.900085 1094.435669,938.852661 1091.986328,952.771606 
	C1085.209839,991.278503 1078.405518,1029.780762 1071.490479,1068.262939 
	C1069.930664,1076.943237 1067.667847,1078.885620 1058.739502,1079.052979 
	C1046.592407,1079.280884 1034.433105,1079.251343 1022.286621,1078.986450 
	C1015.008362,1078.827881 1012.434448,1076.499756 1011.170898,1069.329102 
	C1002.393677,1019.517151 993.661011,969.697205 985.037231,919.858521 
	C983.331299,909.999512 983.577087,909.951111 973.491150,910.464355 
	C973.051758,910.486755 972.626770,910.792480 972.605591,910.800964 
	C984.026123,974.113525 995.411438,1037.230591 1006.791260,1100.317139 
	C1029.706421,1100.317139 1053.111084,1100.317139 1076.535645,1100.317139 
	C1079.249023,1083.532471 1081.689087,1067.076172 1084.602173,1050.703979 
	C1090.693604,1016.469666 1097.034668,982.279724 1103.501709,947.252258 
M1177.706299,1079.630127 
	C1177.127686,1076.894409 1176.060425,1074.161499 1176.043823,1071.422363 
	C1175.803345,1031.622925 1175.666748,991.822632 1175.614380,952.022400 
	C1175.607300,946.707764 1176.144775,941.388611 1176.524414,936.078308 
	C1176.881714,931.080444 1179.609619,928.630981 1184.666382,928.670288 
	C1191.966797,928.726990 1199.267944,928.684692 1206.680420,928.684692 
	C1206.680420,922.231812 1206.680420,916.514404 1206.680420,910.793701 
	C1182.844971,910.793701 1159.314575,910.793701 1135.774292,910.793701 
	C1135.774292,916.782776 1135.774292,922.367737 1135.774292,928.686523 
	C1143.345703,928.686523 1150.642822,928.510803 1157.927002,928.741577 
	C1163.861694,928.929504 1165.468994,930.590637 1165.979614,936.612549 
	C1166.471558,942.414978 1166.919312,948.242004 1166.942505,954.059998 
	C1167.065186,984.870972 1167.107666,1015.682678 1167.039551,1046.493774 
	C1167.021118,1054.811890 1166.746948,1063.144409 1166.181519,1071.442383 
	C1165.491699,1081.565796 1164.517334,1082.371948 1154.463135,1082.593140 
	C1148.205322,1082.730713 1141.941895,1082.618530 1135.785645,1082.618530 
	C1135.785645,1089.036865 1135.785645,1094.641235 1135.785645,1100.414551 
	C1159.476562,1100.414551 1182.867310,1100.414551 1206.449707,1100.414551 
	C1206.449707,1094.435303 1206.449707,1088.743164 1206.449707,1082.601440 
	C1199.812988,1082.601440 1193.490723,1082.841675 1187.200439,1082.497314 
	C1184.184448,1082.332153 1181.229126,1081.061279 1177.706299,1079.630127 
z"/>
<path fill="#E12403" opacity="1.000000" stroke="none" 
	d="
M455.336914,763.950562 
	C454.069275,770.261353 456.837036,772.988342 461.981659,775.648682 
	C495.699554,793.084595 507.957794,834.169189 489.979126,867.763550 
	C489.150116,869.312622 488.856018,872.002625 489.640503,873.433228 
	C502.912903,897.636292 516.395081,921.724304 529.840088,945.832581 
	C530.072205,946.248718 530.418823,946.600830 531.252930,947.687500 
	C539.331970,942.913086 547.537109,938.264282 555.535034,933.282837 
	C563.924011,928.057739 567.901794,928.690308 573.400208,936.734680 
	C577.251038,942.368835 581.126953,947.986511 584.913452,953.663696 
	C589.245850,960.159363 588.395020,965.184692 581.838318,969.323547 
	C572.427124,975.264343 562.816650,980.889343 552.904175,986.883118 
	C553.376404,987.856140 553.938599,989.169434 554.628540,990.411682 
	C560.683472,1001.314453 566.699585,1012.239563 572.866028,1023.079102 
	C574.982117,1026.798950 576.043030,1030.639282 573.941040,1034.458252 
	C567.898376,1045.436768 569.918091,1055.071411 576.825073,1065.152466 
	C583.282959,1074.577759 588.219971,1085.050049 593.756104,1095.100220 
	C597.156067,1101.272583 595.938354,1106.998535 590.785583,1109.758789 
	C585.751709,1112.455322 580.552185,1110.503662 577.161499,1104.482056 
	C571.705078,1094.792114 566.337219,1085.052124 560.588623,1074.715820 
	C559.768372,1076.823853 559.301392,1078.319580 558.624573,1079.713379 
	C555.241211,1086.681641 546.294495,1087.352905 541.984741,1080.877808 
	C540.055725,1077.979736 538.523376,1074.816895 536.824219,1071.766846 
	C525.494080,1051.429810 514.097839,1031.129028 502.910583,1010.713623 
	C501.114746,1007.436584 499.525787,1006.437439 495.602844,1007.397400 
	C452.453308,1017.956116 409.232513,1018.009399 366.074738,1007.400574 
	C362.391174,1006.495117 360.578278,1007.063721 358.678528,1010.539185 
	C346.715027,1032.425537 334.456818,1054.150757 322.341156,1075.954346 
	C319.816895,1080.496826 317.730927,1085.466553 311.281128,1085.258057 
	C305.246399,1085.063110 302.779541,1080.882202 301.111664,1074.547607 
	C299.326080,1077.650879 298.123993,1079.686279 296.972992,1081.750122 
	C292.923248,1089.011841 288.912231,1096.294922 284.845978,1103.547241 
	C281.161316,1110.119019 275.805969,1112.235718 270.595490,1109.245605 
	C265.439270,1106.286621 264.497223,1100.974121 268.095612,1094.472656 
	C275.503754,1081.088013 282.880035,1067.684326 290.467194,1054.401367 
	C292.174866,1051.411743 292.399719,1048.945312 291.311920,1045.593750 
	C284.691681,1025.197388 283.912628,1032.229248 294.369476,1012.884399 
	C299.105927,1004.122009 304.044678,995.469055 308.780151,986.966675 
	C298.962189,981.051636 289.362366,975.436340 279.941162,969.535706 
	C273.080627,965.238953 272.177429,960.308594 276.649902,953.599609 
	C280.804199,947.368103 284.981567,941.149658 289.274658,935.013611 
	C293.239258,929.346924 297.990173,928.455261 303.913940,932.003662 
	C312.600464,937.206909 321.299988,942.388489 330.295868,947.759644 
	C331.394806,946.031555 332.233856,944.848633 332.935272,943.589050 
	C345.717773,920.633606 358.423767,897.635254 371.329773,874.749573 
	C372.929138,871.913513 372.905853,869.973206 371.351959,867.090210 
	C353.005157,833.051147 366.767883,791.043701 401.808044,774.406311 
	C405.342804,772.728027 406.165436,770.910889 406.128662,767.350891 
	C405.954834,750.524170 406.034180,733.694641 406.058990,716.866150 
	C406.071533,708.348816 409.385193,704.994385 417.778625,704.965698 
	C426.609314,704.935608 435.440460,704.918335 444.270966,704.971191 
	C451.818939,705.016357 455.267517,708.376770 455.307922,715.972046 
	C455.392151,731.800476 455.335693,747.629578 455.336914,763.950562 
M401.600311,873.938782 
	C412.607544,881.936523 424.750488,885.071167 438.323334,883.106384 
	C464.160248,879.366394 483.013824,853.757263 478.717224,827.939941 
	C474.227997,800.965210 448.785919,782.406250 422.746246,787.457031 
	C402.832764,791.319702 389.354584,803.063416 384.088959,822.697083 
	C378.644379,842.997986 384.985138,860.033203 401.600311,873.938782 
M442.854370,970.345215 
	C454.297668,969.047729 465.740997,967.750244 477.202271,966.450745 
	C477.007629,964.966187 477.057037,964.591309 476.909607,964.325684 
	C465.788513,944.286560 454.701477,924.227844 443.395447,904.293457 
	C442.703827,903.073975 440.293457,902.325317 438.641541,902.248962 
	C433.686646,902.019958 428.677551,902.599365 423.755829,902.145325 
	C420.459106,901.841248 418.732483,902.573059 417.112549,905.538330 
	C406.841309,924.339905 396.354889,943.023987 385.954712,961.755249 
	C385.270111,962.988342 384.712646,964.292053 384.000519,965.759766 
	C403.411774,969.719116 422.540009,971.650146 442.854370,970.345215 
M553.427063,956.985474 
	C468.398102,1003.219055 384.167633,999.948303 300.045685,952.964050 
	C299.935364,953.125854 299.554504,953.670959 299.187775,954.225342 
	C298.467804,955.313721 297.755524,956.407166 296.808777,957.851318 
	C342.944641,986.446533 392.950623,999.017761 446.796204,995.781372 
	C489.191589,993.233154 528.454224,980.476318 564.739563,957.760376 
	C563.259216,955.708130 562.137146,954.152588 560.983887,952.553833 
	C558.360535,954.103516 556.218201,955.369080 553.427063,956.985474 
M507.139374,944.328613 
	C496.426422,925.074158 485.713470,905.819641 475.026215,886.611389 
	C470.038116,889.941284 465.528687,892.951660 460.773438,896.126099 
	C472.839447,917.778809 484.836151,939.307129 496.934570,961.017944 
	C502.599731,959.037903 507.701599,957.254700 513.240479,955.318787 
	C511.173340,951.566833 509.351410,948.259949 507.139374,944.328613 
M353.062408,946.577515 
	C351.565002,949.308411 350.067566,952.039307 348.270447,955.316711 
	C354.009918,957.301208 359.233429,959.107300 364.607758,960.965576 
	C376.775360,939.104492 388.722046,917.640381 400.709595,896.102844 
	C395.833649,892.854370 391.320099,889.847412 386.477448,886.621094 
	C375.401978,906.486938 364.407745,926.207031 353.062408,946.577515 
M543.656860,1009.823242 
	C540.831238,1004.806702 538.005554,999.790161 535.071045,994.580383 
	C529.605896,996.670349 524.548096,998.604553 519.036255,1000.712402 
	C528.573242,1017.848633 537.981262,1034.753174 547.478333,1051.817627 
	C553.006714,1040.210083 558.105408,1028.934570 547.935547,1017.377991 
	C546.220947,1015.429688 545.287659,1012.793823 543.656860,1009.823242 
M311.959229,1020.454285 
	C310.986328,1022.189331 309.795898,1023.841492 309.095123,1025.680176 
	C308.202484,1028.022461 306.696411,1030.768066 307.228485,1032.896240 
	C308.805450,1039.203735 311.253571,1045.293213 313.679932,1052.402344 
	C323.514526,1034.744751 332.901276,1017.891174 342.490875,1000.673462 
	C336.796265,998.542969 331.625671,996.608521 326.351349,994.635254 
	C321.491791,1003.318115 316.883118,1011.552795 311.959229,1020.454285 
M425.072418,734.528564 
	C425.072418,745.603699 425.072418,756.678772 425.072418,767.633057 
	C429.189087,767.633057 432.607239,767.633057 436.276611,767.633057 
	C436.276611,760.203003 436.276642,753.063599 436.276642,745.924194 
	C436.276642,738.689880 436.276611,731.455505 436.276611,724.315491 
	C432.150848,724.315491 428.746582,724.315491 425.072418,724.315491 
	C425.072418,727.601135 425.072418,730.571350 425.072418,734.528564 
z"/>
<path fill="#E22706" opacity="1.000000" stroke="none" 
	d="
M657.023926,933.014160 
	C657.020447,925.373352 657.020447,918.229736 657.020447,911.098999 
	C657.311646,910.890076 657.565674,910.548218 657.819580,910.548340 
	C682.470459,910.559509 707.160706,909.728394 731.762573,910.844360 
	C765.150513,912.358948 785.421631,936.714905 782.637146,970.056335 
	C780.095764,1000.486755 762.058594,1018.151855 731.493042,1020.151733 
	C729.386841,1020.289551 727.283081,1020.464355 724.693115,1020.658203 
	C730.523682,1036.866455 736.052002,1052.534912 745.081055,1066.618652 
	C756.009827,1083.665771 769.551331,1088.407227 788.844299,1082.318359 
	C790.408203,1081.824707 791.971619,1081.329346 794.067139,1080.666748 
	C794.067139,1086.633789 794.260071,1092.256592 793.910034,1097.845215 
	C793.836975,1099.012207 791.940857,1100.641846 790.577087,1101.063843 
	C772.589783,1106.630615 754.569458,1100.556519 743.261719,1085.185059 
	C734.269775,1072.961426 729.385132,1058.754272 724.118591,1044.761353 
	C721.545227,1037.923950 719.506836,1030.884888 716.910706,1024.057129 
	C716.363037,1022.616638 714.422119,1020.683105 713.146851,1020.700684 
	C700.666626,1020.872314 688.175842,1021.158386 675.720337,1021.931763 
	C667.488281,1022.442871 666.051392,1024.106445 666.113586,1032.634155 
	C666.266724,1053.621826 666.737976,1074.607056 667.075806,1095.593262 
	C667.099670,1097.076538 667.078857,1098.560547 667.078857,1100.368896 
	C663.697571,1100.368896 660.483521,1100.368896 657.027405,1100.368896 
	C657.027405,1044.716187 657.027405,989.113770 657.023926,933.014160 
M699.503052,1010.955017 
	C711.325073,1010.619019 723.164307,1010.576721 734.965210,1009.881775 
	C755.271790,1008.685791 769.438293,996.571655 772.626038,978.221619 
	C776.887207,953.692383 764.309387,932.859192 741.130249,930.588928 
	C719.348450,928.455505 697.230225,929.490784 675.264221,929.664612 
	C668.631592,929.717102 666.267456,932.456604 666.177246,939.174316 
	C665.902283,959.659607 665.896118,980.153442 666.181152,1000.638428 
	C666.271667,1007.137878 669.036865,1009.531250 675.545532,1009.986084 
	C683.183899,1010.519836 690.850586,1010.649536 699.503052,1010.955017 
z"/>
<path fill="#E22706" opacity="1.000000" stroke="none" 
	d="
M1428.020264,1066.979736 
	C1428.026245,1014.716064 1428.026245,962.948608 1428.026245,910.870178 
	C1428.340088,910.776428 1428.940430,910.438660 1429.539551,910.441040 
	C1452.683960,910.533142 1475.835327,910.334717 1498.970703,910.850464 
	C1534.010132,911.631592 1553.296631,932.891174 1557.646851,964.672546 
	C1561.541992,993.129150 1561.622803,1021.827087 1556.983887,1050.282837 
	C1552.117188,1080.136353 1531.801025,1098.708130 1501.430054,1099.925415 
	C1477.031128,1100.903320 1452.561768,1100.123169 1428.014282,1100.123169 
	C1428.014282,1089.347778 1428.014282,1078.411865 1428.020264,1066.979736 
M1528.550171,936.825195 
	C1522.746216,934.875183 1517.077515,932.080505 1511.114258,931.126404 
	C1489.267456,927.631104 1467.264160,929.176025 1445.307251,930.157837 
	C1440.685059,930.364441 1437.948730,932.844666 1437.519409,937.598083 
	C1437.354858,939.419678 1437.006226,941.238586 1437.005005,943.058899 
	C1436.977539,985.028137 1436.921997,1026.997681 1437.042969,1068.966553 
	C1437.067017,1077.321167 1438.930176,1079.753052 1447.169800,1080.048706 
	C1466.116699,1080.728027 1485.167358,1081.829102 1504.035522,1080.601318 
	C1531.662598,1078.803711 1546.489990,1064.841919 1550.466431,1037.828491 
	C1553.653198,1016.179138 1553.314697,994.253540 1550.494141,972.546692 
	C1548.593262,957.916687 1543.044312,944.883240 1528.550171,936.825195 
z"/>
<path fill="#E22807" opacity="1.000000" stroke="none" 
	d="
M1247.724365,1053.041992 
	C1247.737915,1005.405396 1247.737915,958.262573 1247.737915,910.393250 
	C1250.921875,910.393250 1254.523560,910.393188 1258.125122,910.393188 
	C1268.122681,910.393188 1278.130493,910.658813 1288.113525,910.277954 
	C1292.899048,910.095398 1294.866821,911.477112 1296.149780,916.293945 
	C1307.915894,960.468018 1319.973633,1004.564636 1332.015015,1048.665039 
	C1333.852905,1055.396240 1336.002686,1062.044067 1338.080811,1068.707642 
	C1339.815918,1074.271362 1343.477783,1077.309570 1349.501221,1077.213623 
	C1352.994751,1077.157837 1356.499756,1077.426270 1359.983521,1077.242432 
	C1366.927979,1076.876465 1368.834229,1075.147949 1368.974609,1068.043945 
	C1369.293701,1051.889771 1369.569580,1035.725708 1369.363770,1019.571960 
	C1368.911499,984.085083 1368.148560,948.602173 1367.521362,913.117493 
	C1367.509888,912.467407 1367.607910,911.815369 1367.682251,910.782898 
	C1371.307251,910.782898 1374.847656,910.782898 1378.243896,910.782898 
	C1378.243896,973.951111 1378.243896,1037.015869 1378.243896,1100.389648 
	C1364.492065,1100.389648 1351.085327,1100.389648 1337.260010,1100.389648 
	C1333.198242,1085.439697 1329.159668,1070.376831 1325.010986,1055.344360 
	C1315.061523,1019.294189 1305.241211,983.206726 1294.989258,947.242493 
	C1291.036377,933.375854 1290.077759,933.144775 1275.755493,933.051270 
	C1273.089966,933.033875 1270.421509,933.004272 1267.759033,933.105225 
	C1260.207520,933.391418 1257.703979,935.487488 1256.725952,943.150146 
	C1256.116699,947.922546 1255.938110,952.784668 1255.992432,957.601746 
	C1256.516846,1004.082397 1257.132080,1050.562012 1257.719360,1097.041992 
	C1257.731812,1098.020508 1257.720947,1098.999268 1257.720947,1100.338867 
	C1254.082520,1100.338867 1250.675537,1100.338867 1247.710815,1100.338867 
	C1247.710815,1084.759155 1247.710815,1069.147461 1247.724365,1053.041992 
z"/>
<path fill="#E22807" opacity="1.000000" stroke="none" 
	d="
M824.226318,1025.035156 
	C826.521179,997.874390 828.828979,971.172913 830.987427,944.459290 
	C831.884827,933.351685 832.463440,922.218262 833.209473,910.751587 
	C865.067993,910.751587 896.778076,910.751587 928.857666,910.751587 
	C932.727295,974.085022 937.604431,1037.263916 947.041870,1100.368164 
	C943.309143,1100.368164 939.924438,1100.368164 936.661804,1100.368164 
	C935.436462,1087.954224 934.236511,1075.735474 933.015625,1063.518921 
	C932.883423,1062.196533 932.660034,1060.880859 932.428650,1059.571045 
	C930.288086,1047.451050 929.651184,1046.430176 917.493652,1046.268921 
	C893.184509,1045.946533 868.868042,1046.166260 844.554626,1046.166870 
	C844.055908,1046.166870 843.556396,1046.213379 843.058594,1046.254883 
	C832.474243,1047.136230 831.327820,1047.872192 829.886902,1058.600342 
	C828.249268,1070.792847 827.236755,1083.069458 825.965332,1095.310913 
	C825.797241,1096.929077 825.705078,1098.555298 825.558838,1100.418701 
	C822.009705,1100.418701 818.765320,1100.418701 815.513611,1100.418701 
	C818.417480,1075.308716 821.298218,1050.399170 824.226318,1025.035156 
M837.418274,963.112488 
	C837.091431,966.925476 836.694580,970.733948 836.450134,974.552185 
	C835.472046,989.828369 834.439758,1005.102295 833.644714,1020.388367 
	C833.340393,1026.239380 835.187073,1028.295166 840.921997,1029.032959 
	C845.368103,1029.604858 849.870300,1030.084717 854.343018,1030.048096 
	C876.295898,1029.868042 898.252747,1029.698975 920.195740,1029.081909 
	C926.864502,1028.894531 928.568909,1026.827637 928.110352,1020.242493 
	C926.169556,992.369263 923.908630,964.518372 921.775757,936.658508 
	C921.422363,932.042358 919.012695,929.837891 914.342163,929.839600 
	C892.553589,929.847839 870.763184,929.617371 848.977539,929.853149 
	C841.661743,929.932251 840.949280,930.983826 840.030701,938.377502 
	C839.046875,946.297729 838.363586,954.255249 837.418274,963.112488 
z"/>
<path fill="#E22706" opacity="1.000000" stroke="none" 
	d="
M1600.994141,935.081421 
	C1600.990479,926.783325 1600.990479,918.973083 1600.990479,910.780212 
	C1604.026489,910.780212 1607.226318,910.780212 1610.818481,910.780212 
	C1610.818481,912.910522 1610.840210,914.867920 1610.815186,916.824646 
	C1610.551636,937.486023 1610.244995,958.146912 1610.030151,978.808777 
	C1609.948364,986.686096 1611.396606,988.881042 1619.424438,989.120361 
	C1643.557373,989.839844 1667.706299,990.114502 1691.850952,990.288757 
	C1699.828857,990.346313 1707.833374,989.804382 1715.788086,989.107056 
	C1723.088379,988.467102 1724.702515,986.534424 1724.644653,979.222534 
	C1724.478394,958.226685 1724.185791,937.231689 1723.947632,916.236389 
	C1723.927368,914.446289 1723.944946,912.655884 1723.944946,910.658691 
	C1727.476685,910.658691 1730.559937,910.658691 1733.470215,910.658691 
	C1733.470215,973.994995 1733.470215,1037.072021 1733.470215,1100.421753 
	C1730.553711,1100.421753 1727.447021,1100.421753 1723.664307,1100.421753 
	C1723.664307,1098.691284 1723.651855,1096.935181 1723.666016,1095.179321 
	C1723.858276,1071.349731 1724.089111,1047.520508 1724.231812,1023.690552 
	C1724.285522,1014.714844 1722.881958,1012.550354 1713.816284,1011.947632 
	C1698.873657,1010.954163 1683.870850,1010.458130 1668.894775,1010.486084 
	C1652.586060,1010.516541 1636.260254,1011.063171 1619.979126,1012.018860 
	C1611.729248,1012.503113 1609.956909,1015.079407 1610.032104,1023.245972 
	C1610.251343,1047.074585 1610.564209,1070.902344 1610.835449,1094.730469 
	C1610.855835,1096.524536 1610.838135,1098.319092 1610.838135,1100.401855 
	C1607.364990,1100.401855 1604.272827,1100.401855 1600.997925,1100.401855 
	C1600.997925,1045.428223 1600.997925,990.498718 1600.994141,935.081421 
z"/>
<path fill="#E22807" opacity="1.000000" stroke="none" 
	d="
M1103.387451,947.661926 
	C1097.034668,982.279724 1090.693604,1016.469666 1084.602173,1050.703979 
	C1081.689087,1067.076172 1079.249023,1083.532471 1076.535645,1100.317139 
	C1053.111084,1100.317139 1029.706421,1100.317139 1006.791260,1100.317139 
	C995.411438,1037.230591 984.026123,974.113525 972.605591,910.800964 
	C972.626770,910.792480 973.051758,910.486755 973.491150,910.464355 
	C983.577087,909.951111 983.331299,909.999512 985.037231,919.858521 
	C993.661011,969.697205 1002.393677,1019.517151 1011.170898,1069.329102 
	C1012.434448,1076.499756 1015.008362,1078.827881 1022.286621,1078.986450 
	C1034.433105,1079.251343 1046.592407,1079.280884 1058.739502,1079.052979 
	C1067.667847,1078.885620 1069.930664,1076.943237 1071.490479,1068.262939 
	C1078.405518,1029.780762 1085.209839,991.278503 1091.986328,952.771606 
	C1094.435669,938.852661 1096.694458,924.900085 1099.084229,910.700562 
	C1102.850098,910.700562 1106.425659,910.700562 1110.738892,910.700562 
	C1108.305908,922.988403 1105.903809,935.120300 1103.387451,947.661926 
z"/>
<path fill="#E22807" opacity="1.000000" stroke="none" 
	d="
M1177.976318,1079.960693 
	C1181.229126,1081.061279 1184.184448,1082.332153 1187.200439,1082.497314 
	C1193.490723,1082.841675 1199.812988,1082.601440 1206.449707,1082.601440 
	C1206.449707,1088.743164 1206.449707,1094.435303 1206.449707,1100.414551 
	C1182.867310,1100.414551 1159.476562,1100.414551 1135.785645,1100.414551 
	C1135.785645,1094.641235 1135.785645,1089.036865 1135.785645,1082.618530 
	C1141.941895,1082.618530 1148.205322,1082.730713 1154.463135,1082.593140 
	C1164.517334,1082.371948 1165.491699,1081.565796 1166.181519,1071.442383 
	C1166.746948,1063.144409 1167.021118,1054.811890 1167.039551,1046.493774 
	C1167.107666,1015.682678 1167.065186,984.870972 1166.942505,954.059998 
	C1166.919312,948.242004 1166.471558,942.414978 1165.979614,936.612549 
	C1165.468994,930.590637 1163.861694,928.929504 1157.927002,928.741577 
	C1150.642822,928.510803 1143.345703,928.686523 1135.774292,928.686523 
	C1135.774292,922.367737 1135.774292,916.782776 1135.774292,910.793701 
	C1159.314575,910.793701 1182.844971,910.793701 1206.680420,910.793701 
	C1206.680420,916.514404 1206.680420,922.231812 1206.680420,928.684692 
	C1199.267944,928.684692 1191.966797,928.726990 1184.666382,928.670288 
	C1179.609619,928.630981 1176.881714,931.080444 1176.524414,936.078308 
	C1176.144775,941.388611 1175.607300,946.707764 1175.614380,952.022400 
	C1175.666748,991.822632 1175.803345,1031.622925 1176.043823,1071.422363 
	C1176.060425,1074.161499 1177.127686,1076.894409 1177.976318,1079.960693 
z"/>
<path fill="#FFFCFB" opacity="1.000000" stroke="none" 
	d="
M401.312927,873.722961 
	C384.985138,860.033203 378.644379,842.997986 384.088959,822.697083 
	C389.354584,803.063416 402.832764,791.319702 422.746246,787.457031 
	C448.785919,782.406250 474.227997,800.965210 478.717224,827.939941 
	C483.013824,853.757263 464.160248,879.366394 438.323334,883.106384 
	C424.750488,885.071167 412.607544,881.936523 401.312927,873.722961 
M411.933380,858.641418 
	C413.022888,859.402954 414.074860,860.226013 415.207733,860.916382 
	C426.585266,867.849304 441.487274,866.300354 451.224548,857.195435 
	C460.926270,848.123779 463.562042,833.766113 457.694122,821.954041 
	C451.708923,809.905884 438.494202,803.238098 425.320740,805.804810 
	C413.496674,808.108643 405.469025,815.142639 402.095123,826.601440 
	C398.485291,838.861206 401.781128,849.559448 411.933380,858.641418 
z"/>
<path fill="#FFFDFD" opacity="1.000000" stroke="none" 
	d="
M442.390442,970.377197 
	C422.540009,971.650146 403.411774,969.719116 384.000519,965.759766 
	C384.712646,964.292053 385.270111,962.988342 385.954712,961.755249 
	C396.354889,943.023987 406.841309,924.339905 417.112549,905.538330 
	C418.732483,902.573059 420.459106,901.841248 423.755829,902.145325 
	C428.677551,902.599365 433.686646,902.019958 438.641541,902.248962 
	C440.293457,902.325317 442.703827,903.073975 443.395447,904.293457 
	C454.701477,924.227844 465.788513,944.286560 476.909607,964.325684 
	C477.057037,964.591309 477.007629,964.966187 477.202271,966.450745 
	C465.740997,967.750244 454.297668,969.047729 442.390442,970.377197 
z"/>
<path fill="#FEF7F6" opacity="1.000000" stroke="none" 
	d="
M553.751465,956.810059 
	C556.218201,955.369080 558.360535,954.103516 560.983887,952.553833 
	C562.137146,954.152588 563.259216,955.708130 564.739563,957.760376 
	C528.454224,980.476318 489.191589,993.233154 446.796204,995.781372 
	C392.950623,999.017761 342.944641,986.446533 296.808777,957.851318 
	C297.755524,956.407166 298.467804,955.313721 299.187775,954.225342 
	C299.554504,953.670959 299.935364,953.125854 300.045685,952.964050 
	C384.167633,999.948303 468.398102,1003.219055 553.751465,956.810059 
z"/>
<path fill="#FEFBFB" opacity="1.000000" stroke="none" 
	d="
M507.334412,944.640869 
	C509.351410,948.259949 511.173340,951.566833 513.240479,955.318787 
	C507.701599,957.254700 502.599731,959.037903 496.934570,961.017944 
	C484.836151,939.307129 472.839447,917.778809 460.773438,896.126099 
	C465.528687,892.951660 470.038116,889.941284 475.026215,886.611389 
	C485.713470,905.819641 496.426422,925.074158 507.334412,944.640869 
z"/>
<path fill="#FEFBFB" opacity="1.000000" stroke="none" 
	d="
M353.237976,946.252319 
	C364.407745,926.207031 375.401978,906.486938 386.477448,886.621094 
	C391.320099,889.847412 395.833649,892.854370 400.709595,896.102844 
	C388.722046,917.640381 376.775360,939.104492 364.607758,960.965576 
	C359.233429,959.107300 354.009918,957.301208 348.270447,955.316711 
	C350.067566,952.039307 351.565002,949.308411 353.237976,946.252319 
z"/>
<path fill="#FEFBFB" opacity="1.000000" stroke="none" 
	d="
M543.825134,1010.149414 
	C545.287659,1012.793823 546.220947,1015.429688 547.935547,1017.377991 
	C558.105408,1028.934570 553.006714,1040.210083 547.478333,1051.817627 
	C537.981262,1034.753174 528.573242,1017.848633 519.036255,1000.712402 
	C524.548096,998.604553 529.605896,996.670349 535.071045,994.580383 
	C538.005554,999.790161 540.831238,1004.806702 543.825134,1010.149414 
z"/>
<path fill="#FEFBFB" opacity="1.000000" stroke="none" 
	d="
M312.116821,1020.120850 
	C316.883118,1011.552795 321.491791,1003.318115 326.351349,994.635254 
	C331.625671,996.608521 336.796265,998.542969 342.490875,1000.673462 
	C332.901276,1017.891174 323.514526,1034.744751 313.679932,1052.402344 
	C311.253571,1045.293213 308.805450,1039.203735 307.228485,1032.896240 
	C306.696411,1030.768066 308.202484,1028.022461 309.095123,1025.680176 
	C309.795898,1023.841492 310.986328,1022.189331 312.116821,1020.120850 
z"/>
<path fill="#FEFBFB" opacity="1.000000" stroke="none" 
	d="
M425.072418,734.035095 
	C425.072418,730.571350 425.072418,727.601135 425.072418,724.315491 
	C428.746582,724.315491 432.150848,724.315491 436.276611,724.315491 
	C436.276611,731.455505 436.276642,738.689880 436.276642,745.924194 
	C436.276642,753.063599 436.276611,760.203003 436.276611,767.633057 
	C432.607239,767.633057 429.189087,767.633057 425.072418,767.633057 
	C425.072418,756.678772 425.072418,745.603699 425.072418,734.035095 
z"/>
<path fill="#FFFEFE" opacity="1.000000" stroke="none" 
	d="
M699.004028,1010.954773 
	C690.850586,1010.649536 683.183899,1010.519836 675.545532,1009.986084 
	C669.036865,1009.531250 666.271667,1007.137878 666.181152,1000.638428 
	C665.896118,980.153442 665.902283,959.659607 666.177246,939.174316 
	C666.267456,932.456604 668.631592,929.717102 675.264221,929.664612 
	C697.230225,929.490784 719.348450,928.455505 741.130249,930.588928 
	C764.309387,932.859192 776.887207,953.692383 772.626038,978.221619 
	C769.438293,996.571655 755.271790,1008.685791 734.965210,1009.881775 
	C723.164307,1010.576721 711.325073,1010.619019 699.004028,1010.954773 
z"/>
<path fill="#FFFEFE" opacity="1.000000" stroke="none" 
	d="
M1528.890991,936.969788 
	C1543.044312,944.883240 1548.593262,957.916687 1550.494141,972.546692 
	C1553.314697,994.253540 1553.653198,1016.179138 1550.466431,1037.828491 
	C1546.489990,1064.841919 1531.662598,1078.803711 1504.035522,1080.601318 
	C1485.167358,1081.829102 1466.116699,1080.728027 1447.169800,1080.048706 
	C1438.930176,1079.753052 1437.067017,1077.321167 1437.042969,1068.966553 
	C1436.921997,1026.997681 1436.977539,985.028137 1437.005005,943.058899 
	C1437.006226,941.238586 1437.354858,939.419678 1437.519409,937.598083 
	C1437.948730,932.844666 1440.685059,930.364441 1445.307251,930.157837 
	C1467.264160,929.176025 1489.267456,927.631104 1511.114258,931.126404 
	C1517.077515,932.080505 1522.746216,934.875183 1528.890991,936.969788 
z"/>
<path fill="#FFFEFE" opacity="1.000000" stroke="none" 
	d="
M837.483643,962.654541 
	C838.363586,954.255249 839.046875,946.297729 840.030701,938.377502 
	C840.949280,930.983826 841.661743,929.932251 848.977539,929.853149 
	C870.763184,929.617371 892.553589,929.847839 914.342163,929.839600 
	C919.012695,929.837891 921.422363,932.042358 921.775757,936.658508 
	C923.908630,964.518372 926.169556,992.369263 928.110352,1020.242493 
	C928.568909,1026.827637 926.864502,1028.894531 920.195740,1029.081909 
	C898.252747,1029.698975 876.295898,1029.868042 854.343018,1030.048096 
	C849.870300,1030.084717 845.368103,1029.604858 840.921997,1029.032959 
	C835.187073,1028.295166 833.340393,1026.239380 833.644714,1020.388367 
	C834.439758,1005.102295 835.472046,989.828369 836.450134,974.552185 
	C836.694580,970.733948 837.091431,966.925476 837.483643,962.654541 
z"/>
<path fill="#E12403" opacity="1.000000" stroke="none" 
	d="
M411.662659,858.402039 
	C401.781128,849.559448 398.485291,838.861206 402.095123,826.601440 
	C405.469025,815.142639 413.496674,808.108643 425.320740,805.804810 
	C438.494202,803.238098 451.708923,809.905884 457.694122,821.954041 
	C463.562042,833.766113 460.926270,848.123779 451.224548,857.195435 
	C441.487274,866.300354 426.585266,867.849304 415.207733,860.916382 
	C414.074860,860.226013 413.022888,859.402954 411.662659,858.402039 
M440.699585,839.941162 
	C443.413727,830.738342 437.393219,822.751648 428.954407,824.360107 
	C423.916809,825.320251 420.257202,829.303406 419.885376,834.230774 
	C419.496368,839.385437 422.324036,843.898193 427.003479,845.590576 
	C432.024658,847.406677 436.438995,845.738831 440.699585,839.941162 
z"/>
<path fill="#FEFBFB" opacity="1.000000" stroke="none" 
	d="
M440.487610,840.258667 
	C436.438995,845.738831 432.024658,847.406677 427.003479,845.590576 
	C422.324036,843.898193 419.496368,839.385437 419.885376,834.230774 
	C420.257202,829.303406 423.916809,825.320251 428.954407,824.360107 
	C437.393219,822.751648 443.413727,830.738342 440.487610,840.258667 
z"/>
</svg>