<svg version="1.1" xmlns="http://www.w3.org/2000/svg" width="100%" viewBox="0 700 2000 450" xml:space="preserve">
  <style>
    .logo-foreground { fill: #111111; }
    .logo-accent { fill: #B85430; }
    @media (prefers-color-scheme: dark) {
      .logo-foreground { fill: #E5E5E5; }
      .logo-accent { fill: #FFA16C; }
    }
  </style>
  
  <!-- Accent Parts (Compass Needle/Details) -->
  <g class="logo-accent">
    <path d="M455.337,763.458 C455.335,747.629 455.392,731.8 455.307,715.972 C455.267,708.376 451.818,705.016 444.27,704.971 C435.44,704.918 426.609,704.935 417.778,704.965 C409.385,704.994 406.071,708.348 406.058,716.866 C406.034,733.694 405.954,750.524 406.128,767.350 C406.165,770.91 405.342,772.728 401.808,774.406 C366.767,791.043 353.005,833.051 371.351,867.09 C372.905,869.973 372.929,871.913 371.329,874.749 C358.423,897.635 345.717,920.633 332.935,943.589 C332.233,944.848 331.394,946.031 330.295,947.759 C321.299,942.388 312.6,937.206 303.913,932.003 C297.99,928.455 293.239,929.346 289.274,935.013 C284.981,941.149 280.804,947.368 276.649,953.599 C272.177,960.308 273.08,965.238 279.941,969.535 C289.362,975.436 298.962,981.051 308.78,986.966 C304.044,995.469 299.105,1004.122 294.369,1012.884 C283.912,1032.229 284.691,1025.197 291.311,1045.593 C292.399,1048.945 292.174,1051.411 290.467,1054.401 C282.88,1067.684 275.503,1081.088 268.095,1094.472 C264.497,1100.974 265.439,1106.286 270.595,1109.245 C275.805,1112.235 281.161,1110.119 284.845,1103.547 C288.912,1096.294 292.923,1089.011 296.972,1081.750 C298.123,1079.686 299.326,1077.65 301.111,1074.547 C302.779,1080.882 305.246,1085.063 311.281,1085.258 C317.73,1085.466 319.816,1080.496 322.341,1075.954 C334.456,1054.15 346.715,1032.425 358.678,1010.539 C360.578,1007.063 362.391,1006.495 366.074,1007.4 C409.232,1018.009 452.453,1017.956 495.602,1007.397 C499.525,1006.437 501.114,1007.436 502.91,1010.713 C514.097,1031.129 525.494,1051.429 536.824,1071.766 C538.523,1074.816 540.055,1077.979 541.984,1080.877 C546.294,1087.352 555.241,1086.681 558.624,1079.713 C559.301,1078.319 559.768,1076.823 560.588,1074.715 C566.337,1085.052 571.705,1094.792 577.161,1104.482 C580.552,1110.503 585.751,1112.455 590.785,1109.758 C595.938,1106.998 597.156,1101.272 593.756,1095.1 C588.219,1085.05 583.282,1074.577 576.825,1065.152 C569.918,1055.071 567.898,1045.436 573.941,1034.458 C576.043,1030.639 574.982,1026.798 572.866,1023.079 C566.699,1012.239 560.683,1001.314 554.628,990.411 C553.938,989.169 553.376,987.856 552.904,986.883 C562.816,980.889 572.427,975.264 581.838,969.323 C588.395,965.184 589.245,960.159 584.913,953.663 C581.126,947.986 577.251,942.368 573.4,936.734 C567.901,928.69 563.924,928.057 555.535,933.282 C547.537,938.264 539.331,942.913 531.252,947.687 C530.418,946.6 530.072,946.248 529.84,945.832 C516.395,921.724 502.912,897.636 489.64,873.433 C488.856,872.002 489.15,869.312 489.979,867.763 C507.957,834.169 495.699,793.084 461.981,775.648 C456.837,772.988 454.069,770.261 455.337,763.458" />
    <path d="M657.027,933.511 C657.027,989.113 657.027,1044.716 657.027,1100.368 C660.483,1100.368 663.697,1100.368 667.078,1100.368 C667.078,1098.56 667.099,1097.076 667.075,1095.593 C666.737,1074.607 666.266,1053.621 666.113,1032.634 C666.051,1024.106 667.488,1022.442 675.72,1021.931 C688.175,1021.158 700.666,1020.872 713.146,1020.7 C714.422,1020.683 716.363,1022.616 716.91,1024.057 C719.506,1030.884 721.545,1037.923 724.118,1044.761 C729.385,1058.754 734.269,1072.961 743.261,1085.185 C754.569,1100.556 772.589,1106.63 790.577,1101.063 C791.94,1100.641 793.836,1099.012 793.91,1097.845 C794.26,1092.256 794.067,1086.633 794.067,1080.666 C791.971,1081.329 790.408,1081.824 788.844,1082.318 C769.551,1088.407 756.009,1083.665 745.081,1066.618 C736.052,1052.534 730.523,1036.866 724.693,1020.658 C727.283,1020.464 729.386,1020.289 731.493,1020.151 C762.058,1018.151 780.095,1000.486 782.637,970.056 C785.421,936.714 765.15,912.358 731.762,910.844 C707.16,909.728 682.47,910.559 657.819,910.548 C657.565,910.548 657.311,910.89 657.02,911.098 C657.02,918.229 657.02,925.373 657.027,933.511" />
    <path d="M1428.014,1067.475 C1428.014,1078.411 1428.014,1089.347 1428.014,1100.123 C1452.561,1100.123 1477.031,1100.903 1501.43,1099.925 C1531.801,1098.708 1552.117,1080.136 1556.983,1050.282 C1561.622,1021.827 1561.541,993.129 1557.646,964.672 C1557.296,932.891 1534.01,911.631 1498.97,910.85 C1475.835,910.334 1452.683,910.533 1429.539,910.441 C1428.94,910.438 1428.34,910.776 1428.026,910.87 C1428.026,962.948 1428.026,1014.716 1428.014,1067.475" />
    <path d="M1247.71,1053.535 C1247.71,1069.147 1247.71,1084.759 1247.71,1100.338 C1250.675,1100.338 1254.082,1100.338 1257.72,1100.338 C1257.72,1098.999 1257.731,1098.02 1257.719,1097.041 C1257.132,1050.562 1256.516,1004.082 1255.992,957.601 C1255.938,952.784 1256.116,947.922 1256.725,943.15 C1257.703,935.487 1260.207,933.391 1267.759,933.105 C1270.421,933.004 1273.089,933.033 1275.755,933.051 C1290.077,933.144 1291.036,933.375 1294.989,947.242 C1305.241,983.206 1315.061,1019.294 1325.01,1055.344 C1329.159,1070.376 1333.198,1085.439 1337.26,1100.389 C1351.085,1100.389 1364.492,1100.389 1378.243,1100.389 C1378.243,1037.015 1378.243,973.951 1378.243,910.782 C1374.847,910.782 1371.307,910.782 1367.682,910.782 C1367.607,911.815 1367.509,912.467 1367.521,913.117 C1368.148,948.602 1368.911,984.085 1369.363,1019.571 C1369.569,1035.725 1369.293,1051.889 1368.974,1068.043 C1368.834,1075.147 1366.927,1076.876 1359.983,1077.242 C1356.499,1077.426 1352.994,1077.157 1349.501,1077.213 C1343.477,1077.309 1339.815,1074.271 1338.08,1068.707 C1336.002,1062.044 1333.852,1055.396 1332.015,1048.665 C1319.973,1004.564 1307.915,960.468 1296.149,916.293 C1294.866,911.477 1292.899,910.095 1288.113,910.277 C1278.13,910.658 1268.122,910.393 1258.125,910.393 C1254.523,910.393 1250.921,910.393 1247.737,910.393 C1247.737,958.262 1247.737,1005.405 1247.71,1053.535" />
    <path d="M824.178,1025.489 C821.298,1050.399 818.417,1075.308 815.513,1100.418 C818.765,1100.418 822.009,1100.418 825.558,1100.418 C825.705,1098.555 825.797,1096.929 825.965,1095.31 C827.236,1083.069 828.249,1070.792 829.886,1058.6 C831.327,1047.872 832.474,1047.136 843.058,1046.254 C843.556,1046.213 844.055,1046.166 844.554,1046.166 C868.868,1046.166 893.184,1045.946 917.493,1046.268 C929.651,1046.43 930.288,1047.451 932.428,1059.571 C932.66,1060.88 932.883,1062.196 933.015,1063.518 C934.236,1075.735 935.436,1087.954 936.661,1100.368 C939.924,1100.368 943.309,1100.368 947.041,1100.368 C937.604,1037.263 932.727,974.085 928.857,910.751 C896.778,910.751 865.067,910.751 833.209,910.751 C832.463,922.218 831.884,933.351 830.987,944.459 C828.828,971.172 826.521,997.874 824.178,1025.489" />
    <path d="M1600.997,935.569 C1600.997,990.498 1600.997,1045.428 1600.997,1100.401 C1604.272,1100.401 1607.364,1100.401 1610.838,1100.401 C1610.838,1098.319 1610.855,1096.524 1610.835,1094.73 C1610.564,1070.902 1610.251,1047.074 1610.032,1023.245 C1609.956,1015.079 1611.729,1012.503 1619.979,1012.018 C1636.26,1011.063 1652.586,1010.516 1668.894,1010.486 C1683.87,1010.458 1698.873,1010.954 1713.816,1011.947 C1722.881,1012.55 1724.285,1014.714 1724.231,1023.69 C1724.089,1047.52 1723.858,1071.349 1723.666,1095.179 C1723.651,1096.935 1723.664,1098.691 1723.664,1100.421 C1727.447,1100.421 1730.553,1100.421 1733.47,1100.421 C1733.47,1037.072 1733.47,973.994 1733.47,910.658 C1730.559,910.658 1727.476,910.658 1723.944,910.658 C1723.944,912.655 1723.927,914.446 1723.947,916.236 C1724.185,937.231 1724.478,958.226 1724.644,979.222 C1724.702,986.534 1723.088,988.467 1715.788,989.107 C1707.833,989.804 1699.828,990.346 1691.85,990.288 C1667.706,990.114 1643.557,989.839 1619.424,989.12 C1611.396,988.881 1609.948,986.686 1610.03,978.808 C1610.244,958.146 1610.551,937.486 1610.815,916.824 C1610.84,914.867 1610.818,912.91 1610.818,910.78 C1607.226,910.78 1604.026,910.78 1600.99,910.78 C1600.99,918.973 1600.99,926.783 1600.997,935.569" />
    <path d="M1103.501,947.252 C1105.903,935.12 1108.305,922.988 1110.738,910.7 C1106.425,910.7 1102.85,910.7 1099.084,910.7 C1096.694,924.9 1094.435,938.852 1091.986,952.771 C1085.209,991.278 1078.405,1029.78 1071.49,1068.262 C1069.93,1076.943 1067.667,1078.885 1058.739,1079.052 C1046.592,1079.28 1034.433,1079.251 1022.286,1078.986 C1015.008,1078.827 1012.434,1076.499 1011.17,1069.329 C1002.393,1019.517 993.661,969.697 985.037,919.858 C983.331,909.999 983.577,909.951 973.491,910.464 C973.051,910.486 972.626,910.792 972.605,910.8 C984.026,974.113 995.411,1037.23 1006.791,1100.317 C1029.706,1100.317 1053.111,1100.317 1076.535,1100.317 C1079.249,1083.532 1081.689,1067.076 1084.602,1050.703 C1090.693,1016.469 1097.034,982.279 1103.501,947.252" />
    <path d="M1177.706,1079.63 C1177.127,1076.894 1176.06,1074.161 1176.043,1071.422 C1175.803,1031.622 1175.666,991.822 1175.614,952.022 C1175.607,946.707 1176.144,941.388 1176.524,936.078 C1176.881,931.08 1179.609,928.63 1184.666,928.67 C1191.966,928.726 1199.267,928.684 1206.68,928.684 C1206.68,922.231 1206.68,916.514 1206.68,910.793 C1182.844,910.793 1159.314,910.793 1135.774,910.793 C1135.774,916.782 1135.774,922.367 1135.774,928.686 C1143.345,928.686 1150.642,928.51 1157.927,928.741 C1163.861,928.929 1165.468,930.59 1165.979,936.612 C1166.471,942.414 1166.919,948.242 1166.942,954.059 C1167.065,984.87 1167.107,1015.682 1167.039,1046.493 C1167.021,1054.811 1166.746,1063.144 1166.181,1071.442 C1165.491,1081.565 1164.517,1082.371 1154.463,1082.593 C1148.205,1082.73 1141.941,1082.618 1135.785,1082.618 C1135.785,1089.036 1135.785,1094.641 1135.785,1100.414 C1159.476,1100.414 1182.867,1100.414 1206.449,1100.414 C1206.449,1094.435 1206.449,1088.743 1206.449,1082.601 C1199.812,1082.601 1193.49,1082.841 1187.2,1082.497 C1184.184,1082.332 1181.229,1081.061 1177.706,1079.63" />
  </g>
  
  <!-- Logo Content Parts (Theme-aware text and shapes) -->
  <g class="logo-foreground">
    <path d="M401.312,873.722 C384.985,860.033 378.644,842.997 384.088,822.697 C389.354,803.063 402.832,791.319 422.746,787.457 C448.785,782.406 474.227,800.965 478.717,827.939 C483.013,853.757 464.16,879.366 438.323,883.106 C424.75,885.071 412.607,881.936 401.312,873.722 M411.933,858.641 C413.022,859.402 414.074,860.226 415.207,860.916 C426.585,867.849 441.487,866.3 451.224,857.195 C460.926,848.123 463.562,833.766 457.694,821.954 C451.708,809.905 438.494,803.238 425.32,805.804 C413.496,808.108 405.469,815.142 402.095,826.601 C398.485,838.861 401.781,849.559 411.933,858.641" />
    <path d="M442.39,970.377 C422.54,971.65 403.411,969.719 384,965.759 C384.712,964.292 385.27,962.988 385.954,961.755 C396.354,943.023 406.841,924.339 417.112,905.538 C418.732,902.573 420.459,901.841 423.755,902.145 C428.677,902.599 433.686,902.019 438.641,902.248 C440.293,902.325 442.703,903.073 443.395,904.293 C454.701,924.227 465.788,944.286 476.909,964.325 C477.057,964.591 477.007,964.966 477.202,966.45 C465.74,967.75 454.297,969.047 442.39,970.377" />
    <path d="M553.751,956.81 C556.218,955.369 558.36,954.103 560.983,952.553 C562.137,954.152 563.259,955.708 564.739,957.76 C528.454,980.476 489.191,993.233 446.796,995.781 C392.95,999.017 342.944,986.446 296.808,957.851 C297.755,956.407 298.467,955.313 299.187,954.225 C298.467,955.313 297.755,956.407 296.808,957.851 C384.167,999.948 468.398,1003.219 553.751,956.81" />
    <path d="M507.334,944.64 C509.351,948.259 511.173,951.566 513.24,955.318 C507.701,957.254 502.599,959.037 496.934,961.017 C484.836,939.307 472.839,917.778 460.773,896.126 C465.528,892.951 470.038,889.941 475.026,886.611 C485.713,905.819 496.426,925.074 507.334,944.64" />
    <path d="M353.237,946.252 C364.407,926.207 375.401,906.486 386.477,886.621 C391.32,889.847 395.833,892.854 400.709,896.102 C388.722,917.64 376.775,939.104 364.607,960.965 C359.233,959.107 354.009,957.301 348.27,955.316 C350.067,952.039 351.565,949.308 353.237,946.252" />
    <path d="M543.825,1010.149 C545.287,1012.793 546.22,1015.429 547.935,1017.377 C558.105,1028.934 553.006,1040.21 547.478,1051.817 C537.981,1034.753 528.573,1017.848 519.036,1000.712 C524.548,998.604 529.605,996.67 535.071,994.58 C538.005,999.79 540.831,1004.806 543.825,1010.149" />
    <path d="M312.116,1020.12 C316.883,1011.552 321.491,1003.318 326.351,994.635 C331.625,996.608 336.796,998.542 342.49,1000.673 C332.901,1017.891 323.514,1034.744 313.679,1052.402 C311.253,1045.293 308.805,1039.203 307.228,1032.896 C306.696,1030.768 308.202,1028.022 309.095,1025.68 C309.795,1023.841 310.986,1022.189 312.116,1020.12" />
    <path d="M425.072,734.035 C425.072,730.571 425.072,727.601 425.072,724.315 C428.746,724.315 432.15,724.315 436.276,724.315 C436.276,731.455 436.276,738.689 436.276,745.924 C436.276,753.063 436.276,760.203 436.276,767.633 C432.607,767.633 429.189,767.633 425.072,767.633 C425.072,756.678 425.072,745.603 425.072,734.035" />
    <path d="M699.004,1010.954 C690.85,1010.649 683.183,1010.519 675.545,1009.986 C669.036,1009.531 666.271,1007.137 666.181,1000.638 C665.896,980.153 665.896,959.659 666.177,939.174 C666.267,932.456 668.631,929.717 675.264,929.664 C697.23,929.49 719.348,928.455 741.13,930.588 C764.309,932.859 776.887,953.692 772.626,978.221 C769.438,996.571 755.271,1008.685 734.965,1009.881 C723.164,1010.576 711.325,1010.619 699.004,1010.954" />
    <path d="M1528.89,936.969 C1543.044,944.883 1548.593,957.916 1550.494,972.546 C1553.314,994.253 1553.653,1016.179 1550.466,1037.828 C1546.489,1064.841 1531.662,1078.803 1504.035,1080.601 C1485.167,1081.829 1466.116,1080.728 1447.169,1080.048 C1438.93,1079.753 1437.067,1077.321 1437.042,1068.966 C1437.005,1026.997 1436.921,985.028 1437.005,943.058 C1437.067,939.419 1437.354,937.598 1437.519,937.598 C1437.948,932.844 1440.685,930.364 1445.307,930.157 C1467.264,929.176 1489.267,927.631 1511.114,931.126 C1517.077,932.08 1522.746,934.875 1528.89,936.969" />
    <path d="M837.483,962.654 C838.363,954.255 839.046,946.297 840.03,938.377 C840.949,930.983 841.661,929.932 848.977,929.853 C870.763,929.617 892.553,929.847 914.342,929.839 C919.012,929.837 921.422,932.042 921.775,936.658 C923.908,964.518 926.169,992.369 928.11,1020.242 C928.568,1026.827 926.864,1028.894 920.195,1029.081 C898.252,1029.698 876.295,1029.868 854.343,1030.048 C849.87,1030.084 845.368,1029.604 840.921,1029.032 C835.187,1028.295 833.34,1026.239 833.644,1020.388 C834.439,1005.102 835.472,989.828 836.45,974.552 C836.694,970.733 837.091,966.925 837.483,962.654" />
    <path d="M411.662,858.402 C401.781,849.559 398.485,838.861 402.095,826.601 C405.469,815.142 413.496,808.108 425.32,805.804 C438.494,803.238 451.708,809.905 457.694,821.954 C463.562,833.766 460.926,848.123 451.224,857.195 C441.487,866.3 426.585,867.849 415.207,860.916 C414.074,860.226 413.022,859.402 411.662,858.402 M440.699,839.941 C443.413,830.738 437.393,822.751 428.954,824.36 C423.916,825.32 420.257,829.303 419.885,834.23 C419.496,839.385 422.324,843.898 427.003,845.59 C432.024,847.406 436.438,845.738 440.699,839.941" />
    <path d="M440.487,840.258 C436.438,845.738 432.024,847.406 427.003,845.59 C422.324,843.898 419.496,839.385 419.885,834.23 C420.257,829.303 423.916,825.32 428.954,824.36 C437.393,822.751 443.413,830.738 440.487,840.258" />
  </g>
</svg>
