<svg version="1.1" id="Layer_1" xmlns="http://www.w3.org/2000/svg" xmlns:xlink="http://www.w3.org/1999/xlink" x="0px" y="0px" viewBox="0 0 2000 2000" xml:space="preserve">
<path fill="#FFFFFF" opacity="1.000000" stroke="none" 
	d="
M1077.000000,2001.000000 
	C718.000000,2001.000000 359.500000,2001.000000 1.000000,2001.000000 
	C1.000000,1334.333374 1.000000,667.666687 1.000000,1.000000 
	C667.666687,1.000000 1334.333374,1.000000 2001.000000,1.000000 
	C2001.000000,667.666687 2001.000000,1334.333374 2001.000000,2001.000000 
	C1693.166626,2001.000000 1385.333374,2001.000000 1077.000000,2001.000000 
M455.337006,763.458435 
	C455.335693,747.629578 455.392151,731.800476 455.307922,715.972046 
	C455.267517,708.376770 451.818939,705.016357 444.270966,704.971191 
	C435.440460,704.918335 426.609314,704.935608 417.778625,704.965698 
	C409.385193,704.994385 406.071533,708.348816 406.058990,716.866150 
	C406.034180,733.694641 405.954834,750.524170 406.128662,767.350891 
	C406.165436,770.910889 405.342804,772.728027 401.808044,774.406311 
	C366.767883,791.043701 353.005157,833.051147 371.351959,867.090210 
	C372.905853,869.973206 372.929138,871.913513 371.329773,874.749573 
	C358.423767,897.635254 345.717773,920.633606 332.935272,943.589050 
	C332.233856,944.848633 331.394806,946.031555 330.295868,947.759644 
	C321.299988,942.388489 312.600464,937.206909 303.913940,932.003662 
	C297.990173,928.455261 293.239258,929.346924 289.274658,935.013611 
	C284.981567,941.149658 280.804199,947.368103 276.649902,953.599609 
	C272.177429,960.308594 273.080627,965.238953 279.941162,969.535706 
	C289.362366,975.436340 298.962189,981.051636 308.780151,986.966675 
	C304.044678,995.469055 299.105927,1004.122009 294.369476,1012.884399 
	C283.912628,1032.229248 284.691681,1025.197388 291.311920,1045.593750 
	C292.399719,1048.945312 292.174866,1051.411743 290.467194,1054.401367 
	C282.880035,1067.684326 275.503754,1081.088013 268.095612,1094.472656 
	C264.497223,1100.974121 265.439270,1106.286621 270.595490,1109.245605 
	C275.805969,1112.235718 281.161316,1110.119019 284.845978,1103.547241 
	C288.912231,1096.294922 292.923248,1089.011841 296.972992,1081.750122 
	C298.123993,1079.686279 299.326080,1077.650879 301.111664,1074.547607 
	C302.779541,1080.882202 305.246399,1085.063110 311.281128,1085.258057 
	C317.730927,1085.466553 319.816895,1080.496826 322.341156,1075.954346 
	C334.456818,1054.150757 346.715027,1032.425537 358.678528,1010.539185 
	C360.578278,1007.063721 362.391174,1006.495117 366.074738,1007.400574 
	C409.232513,1018.009399 452.453308,1017.956116 495.602844,1007.397400 
	C499.525787,1006.437439 501.114746,1007.436584 502.910583,1010.713623 
	C514.097839,1031.129028 525.494080,1051.429810 536.824219,1071.766846 
	C538.523376,1074.816895 540.055725,1077.979736 541.984741,1080.877808 
	C546.294495,1087.352905 555.241211,1086.681641 558.624573,1079.713379 
	C559.301392,1078.319580 559.768372,1076.823853 560.588623,1074.715820 
	C566.337219,1085.052124 571.705078,1094.792114 577.161499,1104.482056 
	C580.552185,1110.503662 585.751709,1112.455322 590.785583,1109.758789 
	C595.938354,1106.998535 597.156067,1101.272583 593.756104,1095.100220 
	C588.219971,1085.050049 583.282959,1074.577759 576.825073,1065.152466 
	C569.918091,1055.071411 567.898376,1045.436768 573.941040,1034.458252 
	C576.043030,1030.639282 574.982117,1026.798950 572.866028,1023.079102 
	C566.699585,1012.239563 560.683472,1001.314453 554.628540,990.411682 
	C553.938599,989.169434 553.376404,987.856140 552.904175,986.883118 
	C562.816650,980.889343 572.427124,975.264343 581.838318,969.323547 
	C588.395020,965.184692 589.245850,960.159363 584.913452,953.663696 
	C581.126953,947.986511 577.251038,942.368835 573.400208,936.734680 
	C567.901794,928.690308 563.924011,928.057739 555.535034,933.282837 
	C547.537109,938.264282 539.331970,942.913086 531.252930,947.687500 
	C530.418823,946.600830 530.072205,946.248718 529.840088,945.832581 
	C516.395081,921.724304 502.912903,897.636292 489.640503,873.433228 
	C488.856018,872.002625 489.150116,869.312622 489.979126,867.763550 
	C507.957794,834.169189 495.699554,793.084595 461.981659,775.648682 
	C456.837036,772.988342 454.069275,770.261353 455.337006,763.458435 
M657.027405,933.511353 
	C657.027405,989.113770 657.027405,1044.716187 657.027405,1100.368896 
	C660.483521,1100.368896 663.697571,1100.368896 667.078857,1100.368896 
	C667.078857,1098.560547 667.099670,1097.076538 667.075806,1095.593262 
	C666.737976,1074.607056 666.266724,1053.621826 666.113586,1032.634155 
	C666.051392,1024.106445 667.488281,1022.442871 675.720337,1021.931763 
	C688.175842,1021.158386 700.666626,1020.872314 713.146851,1020.700684 
	C714.422119,1020.683105 716.363037,1022.616638 716.910706,1024.057129 
	C719.506836,1030.884888 721.545227,1037.923950 724.118591,1044.761353 
	C729.385132,1058.754272 734.269775,1072.961426 743.261719,1085.185059 
	C754.569458,1100.556519 772.589783,1106.630615 790.577087,1101.063843 
	C791.940857,1100.641846 793.836975,1099.012207 793.910034,1097.845215 
	C794.260071,1092.256592 794.067139,1086.633789 794.067139,1080.666748 
	C791.971619,1081.329346 790.408203,1081.824707 788.844299,1082.318359 
	C769.551331,1088.407227 756.009827,1083.665771 745.081055,1066.618652 
	C736.052002,1052.534912 730.523682,1036.866455 724.693115,1020.658203 
	C727.283081,1020.464355 729.386841,1020.289551 731.493042,1020.151733 
	C762.058594,1018.151855 780.095764,1000.486755 782.637146,970.056335 
	C785.421631,936.714905 765.150513,912.358948 731.762573,910.844360 
	C707.160706,909.728394 682.470459,910.559509 657.819580,910.548340 
	C657.565674,910.548218 657.311646,910.890076 657.020447,911.098999 
	C657.020447,918.229736 657.020447,925.373352 657.027405,933.511353 
M1428.014282,1067.475952 
	C1428.014282,1078.411865 1428.014282,1089.347778 1428.014282,1100.123169 
	C1452.561768,1100.123169 1477.031128,1100.903320 1501.430054,1099.925415 
	C1531.801025,1098.708130 1552.117188,1080.136353 1556.983887,1050.282837 
	C1561.622803,1021.827087 1561.541992,993.129150 1557.646851,964.672546 
	C1553.296631,932.891174 1534.010132,911.631592 1498.970703,910.850464 
	C1475.835327,910.334717 1452.683960,910.533142 1429.539551,910.441040 
	C1428.940430,910.438660 1428.340088,910.776428 1428.026245,910.870178 
	C1428.026245,962.948608 1428.026245,1014.716064 1428.014282,1067.475952 
M1247.710815,1053.535767 
	C1247.710815,1069.147461 1247.710815,1084.759155 1247.710815,1100.338867 
	C1250.675537,1100.338867 1254.082520,1100.338867 1257.720947,1100.338867 
	C1257.720947,1098.999268 1257.731812,1098.020508 1257.719360,1097.041992 
	C1257.132080,1050.562012 1256.516846,1004.082397 1255.992432,957.601746 
	C1255.938110,952.784668 1256.116699,947.922546 1256.725952,943.150146 
	C1257.703979,935.487488 1260.207520,933.391418 1267.759033,933.105225 
	C1270.421509,933.004272 1273.089966,933.033875 1275.755493,933.051270 
	C1290.077759,933.144775 1291.036377,933.375854 1294.989258,947.242493 
	C1305.241211,983.206726 1315.061523,1019.294189 1325.010986,1055.344360 
	C1329.159668,1070.376831 1333.198242,1085.439697 1337.260010,1100.389648 
	C1351.085327,1100.389648 1364.492065,1100.389648 1378.243896,1100.389648 
	C1378.243896,1037.015869 1378.243896,973.951111 1378.243896,910.782898 
	C1374.847656,910.782898 1371.307251,910.782898 1367.682251,910.782898 
	C1367.607910,911.815369 1367.509888,912.467407 1367.521362,913.117493 
	C1368.148560,948.602173 1368.911499,984.085083 1369.363770,1019.571960 
	C1369.569580,1035.725708 1369.293701,1051.889771 1368.974609,1068.043945 
	C1368.834229,1075.147949 1366.927979,1076.876465 1359.983521,1077.242432 
	C1356.499756,1077.426270 1352.994751,1077.157837 1349.501221,1077.213623 
	C1343.477783,1077.309570 1339.815918,1074.271362 1338.080811,1068.707642 
	C1336.002686,1062.044067 1333.852905,1055.396240 1332.015015,1048.665039 
	C1319.973633,1004.564636 1307.915894,960.468018 1296.149780,916.293945 
	C1294.866821,911.477112 1292.899048,910.095398 1288.113525,910.277954 
	C1278.130493,910.658813 1268.122681,910.393188 1258.125122,910.393188 
	C1254.523560,910.393188 1250.921875,910.393250 1247.737915,910.393250 
	C1247.737915,958.262573 1247.737915,1005.405396 1247.710815,1053.535767 
M824.178955,1025.489624 
	C821.298218,1050.399170 818.417480,1075.308716 815.513611,1100.418701 
	C818.765320,1100.418701 822.009705,1100.418701 825.558838,1100.418701 
	C825.705078,1098.555298 825.797241,1096.929077 825.965332,1095.310913 
	C827.236755,1083.069458 828.249268,1070.792847 829.886902,1058.600342 
	C831.327820,1047.872192 832.474243,1047.136230 843.058594,1046.254883 
	C843.556396,1046.213379 844.055908,1046.166870 844.554626,1046.166870 
	C868.868042,1046.166260 893.184509,1045.946533 917.493652,1046.268921 
	C929.651184,1046.430176 930.288086,1047.451050 932.428650,1059.571045 
	C932.660034,1060.880859 932.883423,1062.196533 933.015625,1063.518921 
	C934.236511,1075.735474 935.436462,1087.954224 936.661804,1100.368164 
	C939.924438,1100.368164 943.309143,1100.368164 947.041870,1100.368164 
	C937.604431,1037.263916 932.727295,974.085022 928.857666,910.751587 
	C896.778076,910.751587 865.067993,910.751587 833.209473,910.751587 
	C832.463440,922.218262 831.884827,933.351685 830.987427,944.459290 
	C828.828979,971.172913 826.521179,997.874390 824.178955,1025.489624 
M1600.997925,935.569275 
	C1600.997925,990.498718 1600.997925,1045.428223 1600.997925,1100.401855 
	C1604.272827,1100.401855 1607.364990,1100.401855 1610.838135,1100.401855 
	C1610.838135,1098.319092 1610.855835,1096.524536 1610.835449,1094.730469 
	C1610.564209,1070.902344 1610.251343,1047.074585 1610.032104,1023.245972 
	C1609.956909,1015.079407 1611.729248,1012.503113 1619.979126,1012.018860 
	C1636.260254,1011.063171 1652.586060,1010.516541 1668.894775,1010.486084 
	C1683.870850,1010.458130 1698.873657,1010.954163 1713.816284,1011.947632 
	C1722.881958,1012.550354 1724.285522,1014.714844 1724.231812,1023.690552 
	C1724.089111,1047.520508 1723.858276,1071.349731 1723.666016,1095.179321 
	C1723.651855,1096.935181 1723.664307,1098.691284 1723.664307,1100.421753 
	C1727.447021,1100.421753 1730.553711,1100.421753 1733.470215,1100.421753 
	C1733.470215,1037.072021 1733.470215,973.994995 1733.470215,910.658691 
	C1730.559937,910.658691 1727.476685,910.658691 1723.944946,910.658691 
	C1723.944946,912.655884 1723.927368,914.446289 1723.947632,916.236389 
	C1724.185791,937.231689 1724.478394,958.226685 1724.644653,979.222534 
	C1724.702515,986.534424 1723.088379,988.467102 1715.788086,989.107056 
	C1707.833374,989.804382 1699.828857,990.346313 1691.850952,990.288757 
	C1667.706299,990.114502 1643.557373,989.839844 1619.424438,989.120361 
	C1611.396606,988.881042 1609.948364,986.686096 1610.030151,978.808777 
	C1610.244995,958.146912 1610.551636,937.486023 1610.815186,916.824646 
	C1610.840210,914.867920 1610.818481,912.910522 1610.818481,910.780212 
	C1607.226318,910.780212 1604.026489,910.780212 1600.990479,910.780212 
	C1600.990479,918.973083 1600.990479,926.783325 1600.997925,935.569275 
M1103.501709,947.252258 
	C1105.903809,935.120300 1108.305908,922.988403 1110.738892,910.700562 
	C1106.425659,910.700562 1102.850098,910.700562 1099.084229,910.700562 
	C1096.694458,924.900085 1094.435669,938.852661 1091.986328,952.771606 
	C1085.209839,991.278503 1078.405518,1029.780762 1071.490479,1068.262939 
	C1069.930664,1076.943237 1067.667847,1078.885620 1058.739502,1079.052979 
	C1046.592407,1079.280884 1034.433105,1079.251343 1022.286621,1078.986450 
	C1015.008362,1078.827881 1012.434448,1076.499756 1011.170898,1069.329102 
	C1002.393677,1019.517151 993.661011,969.697205 985.037231,919.858521 
	C983.331299,909.999512 983.577087,909.951111 973.491150,910.464355 
	C973.051758,910.486755 972.626770,910.792480 972.605591,910.800964 
	C984.026123,974.113525 995.411438,1037.230591 1006.791260,1100.317139 
	C1029.706421,1100.317139 1053.111084,1100.317139 1076.535645,1100.317139 
	C1079.249023,1083.532471 1081.689087,1067.076172 1084.602173,1050.703979 
	C1090.693604,1016.469666 1097.034668,982.279724 1103.501709,947.252258 
M1177.706299,1079.630127 
	C1177.127686,1076.894409 1176.060425,1074.161499 1176.043823,1071.422363 
	C1175.803345,1031.622925 1175.666748,991.822632 1175.614380,952.022400 
	C1175.607300,946.707764 1176.144775,941.388611 1176.524414,936.078308 
	C1176.881714,931.080444 1179.609619,928.630981 1184.666382,928.670288 
	C1191.966797,928.726990 1199.267944,928.684692 1206.680420,928.684692 
	C1206.680420,922.231812 1206.680420,916.514404 1206.680420,910.793701 
	C1182.844971,910.793701 1159.314575,910.793701 1135.774292,910.793701 
	C1135.774292,916.782776 1135.774292,922.367737 1135.774292,928.686523 
	C1143.345703,928.686523 1150.642822,928.510803 1157.927002,928.741577 
	C1163.861694,928.929504 1165.468994,930.590637 1165.979614,936.612549 
	C1166.471558,942.414978 1166.919312,948.242004 1166.942505,954.059998 
	C1167.065186,984.870972 1167.107666,1015.682678 1167.039551,1046.493774 
	C1167.021118,1054.811890 1166.746948,1063.144409 1166.181519,1071.442383 
	C1165.491699,1081.565796 1164.517334,1082.371948 1154.463135,1082.593140 
	C1148.205322,1082.730713 1141.941895,1082.618530 1135.785645,1082.618530 
	C1135.785645,1089.036865 1135.785645,1094.641235 1135.785645,1100.414551 
	C1159.476562,1100.414551 1182.867310,1100.414551 1206.449707,1100.414551 
	C1206.449707,1094.435303 1206.449707,1088.743164 1206.449707,1082.601440 
	C1199.812988,1082.601440 1193.490723,1082.841675 1187.200439,1082.497314 
	C1184.184448,1082.332153 1181.229126,1081.061279 1177.706299,1079.630127 
z"/>
</svg>
