<?xml version="1.0" encoding="UTF-8" standalone="no"?>
<svg
   width="1467.5"
   height="405.66699"
   viewBox="0 0 1467.5 405.66699"
   version="1.1"
   id="svg1"
   xmlns="http://www.w3.org/2000/svg"
   xmlns:svg="http://www.w3.org/2000/svg">
  <defs
     id="defs1" />
  <path
     d="m 144.75,1.0799962 c -4.406,2.567 -4.75,5.217 -4.75,36.6339998 v 29.814 l -5.217,2.477 c -13.114,6.226 -24.534,17.889 -30.84,31.495004 -5.003,10.794 -6.401,17.153 -6.38,29 0.02,11.241 1.814,19.314 6.452,29.03 1.642,3.441 2.985,6.463 2.985,6.716 0,0.708 -41.023,74.141 -41.944,75.081 -0.965,0.985 -9.194,-3.121 -21.556,-10.756 -9.627,-5.946 -13.443,-6.792 -17.126,-3.799 -1.169,0.951 -5.781,7.088 -10.25,13.639 -9.588,14.058 -10.209,16.902 -4.792,21.971 2.729,2.554 27.678,17.788 30.878,18.855 0.499,0.166 -3.896,8.843 -9.766,19.282 -5.871,10.44 -11.041,20.221 -11.491,21.737 -0.611,2.062 0.028,5.263 2.538,12.716 l 3.354,9.96 -13.423,24.245 C 5.084,384.238 0,394.492 0,396.246 c 0,8.173 10.331,12.353 15.826,6.403 1.092,-1.182 5.82,-9.075 10.507,-17.54 l 8.523,-15.39 1.466,3.51 c 2.962,7.089 10.598,9.07 15.505,4.021 1.47,-1.513 11.803,-19.206 22.961,-39.318 l 20.289,-36.568 10.153,2.282 c 18.623,4.186 30.72,5.566 53.27,6.079 24.443,0.555 40.713,-0.82 61.978,-5.237 6.587,-1.368 12.485,-2.488 13.104,-2.488 0.62,0 10.447,16.763 21.837,37.25 11.39,20.487 21.63,38.037 22.756,39 2.293,1.961 7.915,2.307 10.963,0.676 1.104,-0.591 2.784,-2.903 3.733,-5.138 l 1.726,-4.065 8.838,15.889 c 4.862,8.738 9.514,16.667 10.339,17.618 2.218,2.559 7.44,3.228 10.964,1.406 3.432,-1.775 5.759,-6.519 4.893,-9.972 -0.328,-1.306 -6.502,-12.902 -13.72,-25.769 l -13.123,-23.395 3.106,-9.551 c 1.708,-5.254 3.106,-10.528 3.106,-11.722 0,-1.194 -4.699,-10.621 -10.442,-20.949 -5.743,-10.328 -10.731,-19.54 -11.085,-20.471 -0.502,-1.321 0.732,-2.386 5.627,-4.857 3.448,-1.741 10.124,-5.552 14.835,-8.469 16.51,-10.223 16.815,-11.942 5.199,-29.28 -4.436,-6.622 -9.081,-12.751 -10.322,-13.62 -3.834,-2.686 -7.606,-1.903 -15.712,3.257 -10.224,6.509 -21.844,12.752 -22.505,12.091 -0.295,-0.296 -9.964,-17.501 -21.486,-38.234 L 222.16,166 l 2.922,-5.848 c 9.436,-18.882 9.134,-42.456 -0.786,-61.452004 -5.201,-9.961 -18.22,-22.988 -28.046,-28.064 l -7.25,-3.745 v -30.522 -30.5229998 l -2.923,-2.923 L 183.154,-3.796217e-6 164.827,0.0299962 c -10.579,0.018 -19.067,0.462 -20.077,1.05 M 159,40.999996 v 22 h 5.5 5.5 v -22 -22 h -5.5 -5.5 v 22 m -8.202,42.868 c -35.513,11.745 -46.083,54.392004 -19.973,80.583004 9.791,9.822 25.409,15.554 38.407,14.097 33.291,-3.734 52.821,-37.588 39.543,-68.548 -4.184,-9.756 -16.008,-20.842004 -26.731,-25.062004 -7.948,-3.129 -23.419,-3.658 -31.246,-1.07 m 6.153,17.435004 c -22.209,6.279 -29.481,33.915 -13.155,49.996 15.049,14.823 39.852,10.097 48.535,-9.248 2.929,-6.526 2.862,-16.935 -0.152,-23.551 -6.173,-13.551 -21.559,-21.062004 -35.228,-17.197 m 2.363,19.647 c -3.829,2.335 -5.314,4.86 -5.314,9.034 0,4.237 2.308,8.38 5.472,9.821 3.634,1.656 8.657,1.493 11.311,-0.366 2.479,-1.736 5.217,-6.453 5.217,-8.988 0,-3.402 -3.237,-8.335 -6.478,-9.874 -4.338,-2.058 -6.341,-1.985 -10.208,0.373 m -57.668,94.434 C 91.391,233.782 83,249.24 83,249.733 c 0,0.494 3.455,2.116 7.677,3.604 5.991,2.112 7.857,2.427 8.491,1.435 3.067,-4.799 34.832,-62.703 34.832,-63.495 0,-0.773 -9.867,-7.609 -13.078,-9.062 -0.346,-0.156 -9.02,14.77 -19.276,33.169 m 100.505,-29.349 c -2.941,2.125 -5.859,4.034 -6.483,4.242 -0.895,0.299 27.609,53.347 34.058,63.385 l 1.389,2.162 7.692,-2.554 c 4.231,-1.404 7.84,-2.674 8.02,-2.822 0.674,-0.554 -37.37,-68.377 -38.327,-68.328 -0.55,0.028 -3.407,1.79 -6.349,3.915 m -66.46,42.367 c -9.455,17.006 -17.324,31.247 -17.487,31.647 -0.466,1.145 15.999,3.845 30.796,5.051 14.771,1.203 30.737,0.62 47,-1.715 13.432,-1.928 15.165,-2.373 14.8,-3.795 -0.165,-0.642 -7.936,-14.879 -17.27,-31.638 l -16.969,-30.471 h -11.84 -11.839 l -17.191,30.921 M 391.5,300.401 V 396 h 4.722 4.722 l -0.222,-37.58 -0.222,-37.58 2.256,-1.835 c 2.656,-2.161 9.785,-2.886 31.96,-3.253 l 15.217,-0.252 4.149,12.5 c 5.634,16.977 11.182,30.735 16.734,41.5 6.185,11.993 16.099,22.249 24.526,25.375 7.457,2.765 18.402,3.563 26.158,1.906 l 6,-1.281 0.288,-9.877 c 0.287,-9.871 0.286,-9.876 -2,-9.221 -11.485,3.287 -14.574,3.77 -20.231,3.16 -17.048,-1.836 -26.665,-12.929 -40.2,-46.369 -3.493,-8.631 -6.353,-16.255 -6.354,-16.943 -0.002,-0.854 1.82,-1.255 5.747,-1.265 13.606,-0.035 28.151,-5.886 37.25,-14.985 9.92,-9.92 14.412,-22.233 14.412,-39.5 0,-5.5 -0.595,-12.475 -1.323,-15.5 -4.484,-18.631 -17.641,-32.13 -36.589,-37.54 -5.073,-1.448 -12.255,-1.786 -46.5,-2.186 l -40.5,-0.473 v 95.6 M 567.515,206.25 c -0.232,0.688 -0.907,8.9 -1.499,18.25 -3.725,58.849 -9.44,118.443 -15.084,157.305 -1.062,7.318 -1.932,13.529 -1.932,13.802 0,0.274 2.36,0.362 5.244,0.195 l 5.245,-0.302 1.177,-15.5 c 1.264,-16.628 3.546,-31.658 5.306,-34.947 0.597,-1.116 2.31,-2.372 3.807,-2.791 3.602,-1.009 86.915,-0.987 90.537,0.024 1.841,0.513 3.279,1.898 4.153,4 1.623,3.898 4.239,23.493 5.158,38.629 L 670.301,396 h 5.461 5.461 l -0.575,-3.25 C 675.957,366.231 668.476,291.453 664.516,231.5 663.644,218.3 662.735,206.938 662.497,206.25 662.158,205.274 651.752,205 615,205 c -36.758,0 -47.155,0.274 -47.485,1.25 M 706,205.781 c 0,0.484 1.583,8.719 3.518,18.3 10.511,52.036 21.804,114.843 26.958,149.919 1.414,9.625 2.796,18.518 3.07,19.763 l 0.499,2.263 35.218,-0.263 35.218,-0.263 0.753,-4.5 c 0.414,-2.475 3.013,-18.45 5.777,-35.5 5.344,-32.975 16.098,-91.871 23.321,-127.729 2.408,-11.95 4.143,-21.963 3.856,-22.25 -0.945,-0.944 -10.057,-0.542 -10.684,0.472 -0.337,0.546 -4.417,23.608 -9.066,51.25 -11.146,66.269 -19.285,109.718 -21.085,112.552 -2.572,4.049 -5.677,4.552 -28.353,4.597 -24.289,0.047 -26.943,-0.561 -28.874,-6.625 -2.498,-7.839 -13.644,-69.894 -23.937,-133.267 l -4.71,-29 -5.74,-0.3 c -3.156,-0.165 -5.739,0.096 -5.739,0.581 m 164,8.075 v 8.857 l 13.102,0.531 c 15.332,0.622 15.944,0.963 17.009,9.487 0.396,3.173 0.72,33.669 0.72,67.769 0,34.1 -0.324,64.596 -0.72,67.769 -1.073,8.595 -1.749,8.972 -17.058,9.525 L 870,378.265 v 8.881 8.88 l 35.25,-0.263 35.25,-0.263 0.287,-8.631 0.287,-8.63 -12.787,-0.472 c -7.033,-0.259 -13.514,-0.787 -14.402,-1.174 -4.003,-1.743 -4.168,-3.992 -4.624,-63.093 -0.243,-31.35 -0.01,-63.455 0.521,-71.344 1.264,-18.852 0.643,-18.203 18.108,-18.912 L 941,222.713 V 213.856 205 H 905.5 870 v 8.856 m 111.935,-8.624 c -0.035,0.147 -0.148,43.15 -0.25,95.562 l -0.185,95.293 5,-0.293 5,-0.294 -0.175,-4 c -0.71,-16.182 -1.469,-147.224 -0.881,-151.92 0.574,-4.575 1.386,-6.563 3.572,-8.75 2.745,-2.745 3.144,-2.83 13.258,-2.83 5.735,0 11.897,0.512 13.693,1.138 5.75,2.005 6.214,3.445 32.506,100.862 9.128,33.825 17.022,62.513 17.541,63.75 0.933,2.227 1.148,2.25 20.965,2.25 H 1112 l 0.226,-86 c 0.125,-47.3 0.237,-90.163 0.25,-95.25 l 0.024,-9.25 h -5.393 -5.393 l 0.156,9 c 2.401,138.31 2.4,147.346 -0.027,153.678 -0.564,1.473 -1.76,2.96 -2.658,3.305 -2.842,1.09 -18.802,0.649 -21.534,-0.596 -5.247,-2.391 -5.841,-4.355 -42.937,-141.887 l -6.338,-23.5 -23.188,-0.268 c -12.754,-0.148 -23.217,-0.148 -23.253,0 M 1162.381,300.5 V 396 l 31.06,-10e-4 c 36.025,-0.001 49.739,-1.042 60.444,-4.587 17.958,-5.948 30.69,-20.701 36.091,-41.818 5.415,-21.173 5.404,-76.913 -0.019,-98.346 -3.716,-14.683 -12.461,-28.152 -22.957,-35.36 -12.937,-8.884 -26.363,-10.828 -75.059,-10.865 L 1162.381,205 v 95.5 m 173.031,-0.046 V 396 h 4.677 4.677 l -0.133,-42.575 c -0.152,-48.577 -0.994,-44.335 9.249,-46.556 7.598,-1.647 86.097,-1.678 94.618,-0.037 10.1,1.946 9.5,-1.041 9.5,47.279 V 396 h 4.75 4.75 V 300.5 205 h -4.888 -4.888 l 0.72,35.75 c 0.759,37.723 0.554,40.11 -3.638,42.354 -3.793,2.03 -50.234,3.303 -79.462,2.178 -23.093,-0.888 -25.712,-1.167 -28.153,-2.996 L 1344.5,280.27 V 242.885 205.5 l -4.544,-0.296 -4.544,-0.297 v 95.547 M 406.179,225.137 c -6.191,1.784 -6.573,4.11 -6.546,39.863 0.024,33.731 0.264,35.577 5.03,38.698 2.507,1.642 5.56,1.799 34.295,1.772 26.76,-0.025 32.512,-0.293 37.937,-1.766 19.703,-5.351 30.105,-18.688 30.105,-38.599 0,-18.07 -6.554,-29.307 -21,-36.004 -3.575,-1.657 -9.425,-3.479 -13,-4.049 -8.079,-1.289 -62.293,-1.219 -66.821,0.085 M 581.5,224.869 c -5.777,1.012 -6.18,1.469 -7.38,8.376 -1.778,10.233 -6.104,64.364 -6.113,76.482 -0.01,15.142 -1.235,14.425 26.086,15.276 11.499,0.358 30.315,0.358 41.814,0 17.698,-0.551 21.327,-0.927 23.645,-2.445 l 2.739,-1.795 -0.588,-18.131 c -0.527,-16.292 -4.805,-65.936 -6.28,-72.89 -1.07,-5.042 -2.365,-5.229 -37.423,-5.408 -17.875,-0.091 -34.3,0.15 -36.5,0.535 m 601.064,0.103 c -9.022,0.928 -10.043,1.735 -11.273,8.913 -1.034,6.035 -1.031,129.484 0,134.363 1.27,5.986 4.007,6.831 25.629,7.911 58.174,2.906 77.966,-5.797 86.779,-38.159 2.623,-9.632 2.641,-63.907 0.025,-75.043 -4.931,-20.988 -15.787,-31.915 -36.316,-36.556 -8.023,-1.814 -51.743,-2.778 -64.848,-1.429 M 32.546,250.238 c -1.463,2.088 -1.417,2.353 0.693,3.976 3.931,3.022 28.854,15.459 39.312,19.616 19.915,7.916 45.222,13.972 67.868,16.239 14.891,1.492 48.299,0.668 62.081,-1.53 30.015,-4.787 59.22,-14.814 85.125,-29.226 5.706,-3.175 10.361,-6.232 10.343,-6.793 -0.017,-0.561 -0.694,-1.895 -1.503,-2.965 -1.45,-1.918 -1.522,-1.914 -5.218,0.285 -23.05,13.714 -52.203,24.93 -78.166,30.073 -26.439,5.236 -58.332,6.088 -83.581,2.233 C 98.966,277.483 68.825,267.206 43.975,252.985 39.183,250.243 35.004,248 34.688,248 c -0.316,0 -1.28,1.007 -2.142,2.238 m 21.852,50.012 c -3.144,5.638 -7.601,13.599 -9.905,17.692 l -4.19,7.443 3.565,10.791 c 1.961,5.935 3.879,10.461 4.261,10.057 1.337,-1.408 28.147,-50.29 27.761,-50.613 C 75.285,295.113 61.542,290 60.785,290 c -0.37,0 -3.244,4.612 -6.387,10.25 m 205.854,-7.408 c -3.986,1.462 -7.136,2.93 -7,3.262 0.137,0.332 6.548,11.902 14.248,25.711 l 14,25.108 1.64,-3.799 c 0.902,-2.09 2.629,-6.91 3.838,-10.712 l 2.199,-6.912 -9.839,-17.733 c -5.411,-9.754 -10.288,-17.7 -10.838,-17.658 -0.55,0.041 -4.261,1.271 -8.248,2.733"
     stroke="none"
     fill="#e42707"
     fill-rule="evenodd"
     id="path1" />
</svg>
