<?xml version="1.0" encoding="UTF-8" standalone="no"?>
<svg
   width="1466.5858"
   height="269.93823"
   viewBox="0 0 1466.5858 269.93823"
   version="1.1"
   id="svg2"
   xmlns="http://www.w3.org/2000/svg"
   xmlns:svg="http://www.w3.org/2000/svg">
  <defs
     id="defs2" />
  <path
     d="m 94.910747,2.4691534 c -2.442,2.442 -2.455,2.556 -2.455,22.4039996 v 19.95 l -5.25,2.971 c -6.098,3.452 -14.644,12.131 -17.548,17.823 -6.277,12.306 -6.843,27.156 -1.471,38.635997 l 2.958,6.32 -13.938,24.971 c -7.666,13.733 -14.078,25.114 -14.248,25.29 -0.453,0.468 -8.197,-3.584 -14.359,-7.514 -8.362,-5.334 -10.365,-4.685 -17.394,5.639 -5.5000003,8.078 -6.7710003,11.899 -4.9240003,14.808 0.438,0.689 5.5570003,4.085 11.3760003,7.547 l 10.581,6.294 -7.392,13.202 c -4.065,7.261 -7.391,14.015 -7.391,15.009 0,0.994 0.914,4.513 2.031,7.82 l 2.031,6.014 -9.1460003,16.402 c -9.954,17.852 -10.347,19.737 -4.768,22.869 2.336,1.311 2.894,1.293 5.117,-0.164 1.3730003,-0.9 5.1220003,-6.432 8.3310003,-12.293 3.21,-5.862 6.021,-10.05 6.247,-9.306 0.801,2.634 4.537,5.853 6.792,5.853 1.258,0 3.092,-0.875 4.076,-1.945 0.984,-1.07 7.788,-12.77 15.12,-26 7.331,-13.23 13.786,-24.055 14.342,-24.055 0.557,0 5.584,0.996 11.17,2.214 8.849,1.929 13.183,2.217 33.657003,2.237 18.61,0.019 25.373,-0.348 32.5,-1.762 4.95,-0.982 10.35,-2.015 12,-2.294 2.993,-0.506 3.031,-0.451 16.871,24.625 14.718,26.669 16.15,28.431 21.229,26.116 1.43,-0.651 2.832,-2.073 3.117,-3.16 0.284,-1.087 0.883,-1.976 1.331,-1.976 0.449,0 3.163,4.342 6.032,9.649 2.87,5.306 6.05,10.481 7.069,11.5 3.811,3.811 9.851,1.094 9.851,-4.432 0,-1.443 -3.886,-9.636 -8.636,-18.204 l -8.635,-15.58 2.206,-7.433 2.207,-7.434 -7.571,-13.536 c -4.164,-7.446 -7.571,-13.706 -7.571,-13.913 0,-0.206 3.887,-2.557 8.637,-5.223 9.98,-5.601 14.363,-9.341 14.363,-12.257 0,-2.014 -10.164,-17.918 -12.38,-19.372 -2.516,-1.65 -6.127,-0.492 -14.833,4.756 -5.037,3.037 -9.592,5.377 -10.121,5.201 -0.529,-0.176 -7.233,-11.549 -14.896,-25.271 -12.05,-21.579 -13.772,-25.209 -12.742,-26.863 2.035,-3.266 4.777,-12.175997 5.465,-17.754997 0.846,-6.867 -1.491,-18.188 -5.183,-25.109 -3.517,-6.593 -12.474,-15.522 -18.604,-18.544 l -4.706,-2.32 v -20.43 c 0,-25.8599996 0.939,-24.42999963 -16.045,-24.42999963 -11.456003,0 -12.166003,0.12 -14.500003,2.45500003 M 105.45575,27.514153 v 14.5 h 4 4 v -14.5 -14.5 h -4 -4 v 14.5 m 142.952,21.65 c -0.026,0.193 -0.139,48.838 -0.25,108.099997 l -0.202,107.75 h 5.642 5.641 l -0.541,-41.896 -0.541,-41.896 2.516,-2.515 c 3.335,-3.336 9.172,-4.041 34.14,-4.126 l 19.858,-0.067 6.225,18 c 9.515,27.508 15.401,40.932 22.608,51.562 8.039,11.857 17.921,19.122 29.827,21.93 6.164,1.454 21.791,0.876 26.875,-0.993 l 3.25,-1.195 v -11.009 c 0,-10.082 -0.147,-10.951 -1.75,-10.317 -11.948,4.728 -24.487,5.324 -34.22,1.625 -14.22,-5.403 -26.167,-23.726 -39.588,-60.715 l -3.306,-9.112 7.755,-0.647 c 24.206,-2.018 42.537,-13.18 51.116,-31.124 4.987,-10.43 6.412,-17.467 6.378,-31.505 -0.046,-19.312997 -4.977,-32.564997 -16.385,-44.035997 -7.3,-7.34 -14.964,-11.772 -26.007,-15.039 -7.142,-2.114 -9.639,-2.239 -53.243,-2.671 -25.163,-0.25 -45.772,-0.296 -45.798,-0.104 m 198.668,6.6 c -0.321,3.712 -0.85,11.25 -1.176,16.75 -3.498,59.072997 -11.398,140.169997 -17.802,182.745997 -0.724,4.811 -1.089,8.974 -0.812,9.25 0.277,0.277 2.876,0.504 5.775,0.504 h 5.272 l 0.53,-4.25 c 0.291,-2.337 0.8,-8.75 1.129,-14.25 0.686,-11.422 3.864,-33.793 5.362,-37.732 2.016,-5.302 1.65,-5.268 56.146,-5.268 57.258,0 54.751,-0.341 56.784,7.731 1.677,6.659 4.119,26.826 4.938,40.769 l 0.734,12.5 4.873,0.31 c 7.22,0.459 7.49,0.211 6.511,-5.976 -5.875,-37.144 -14.36,-122.828 -17.858,-180.333997 -0.568,-9.35 -1.293,-19.812 -1.609,-23.25 l -0.576,-6.25 h -53.819 -53.819 l -0.583,6.75 m 157.38,-5.449 c 0,0.716 2.486,13.654 5.525,28.75 7.687,38.189997 17.704,91.468997 21.91,116.535997 3.305,19.695 10.565,66.865 10.565,68.64 0,0.438 18.095,0.678 40.212,0.534 l 40.211,-0.261 1.341,-9 c 2.9,-19.471 11.432,-70.405 16.205,-96.73 4.528,-24.983 19.345,-101.936997 20.701,-107.519997 0.525,-2.159 0.284,-2.25 -5.982,-2.25 -6.313,0 -6.549,0.091 -7.12,2.75 -0.325,1.513 -4.865,28.175 -10.089,59.249997 -11.507,68.45 -21.167,120.496 -23.037,124.112 -2.206,4.266 -6.276,5.116 -26.942,5.622 -23.153,0.568 -33.068,-0.552 -36.112,-4.078 -3.166,-3.667 -10.947,-44.272 -25.924,-135.287 -4.655,-28.288997 -8.464,-51.644997 -8.464,-51.901997 0,-0.257 -2.925,-0.467 -6.5,-0.467 -4.67,0 -6.5,0.366 -6.5,1.301 m 185,9.188 v 10.511 h 13.935 c 7.664,0 15.066,0.43 16.45,0.956 5.029,1.912 5.115,3.337 5.115,84.543997 0,41.25 -0.37,77.17 -0.822,79.822 -1.409,8.266 -2.343,8.678 -19.678,8.678 h -15 v 10.511 10.512 l 40.25,-0.262 40.25,-0.261 v -10 -10 l -15.218,-0.5 c -18.346,-0.603 -18.182,-0.504 -19.352,-11.66 -1.113,-10.612 -1.085,-135.306997 0.033,-147.828997 0.802,-8.986 1.156,-10.216 3.52,-12.25 2.468,-2.123 3.514,-2.261 17.108,-2.261 h 14.479 l -0.285,-10.25 -0.285,-10.25 -40.25,-0.261 -40.25,-0.262 v 10.512 m 127.007,-9.739 c 0,0.413 -0.108,49.013 -0.25,107.999997 l -0.257,107.25 h 5.782 5.782 l -0.782,-35.25 c -0.43,-19.388 -0.782,-59.775 -0.782,-89.75 0,-69.083997 -1.33,-64.970997 21,-64.970997 7.508,0 12.936,0.463 14.5,1.236 3.195,1.579 7.118,9.487 11.03,22.235 1.688,5.499997 12.514,44.832997 24.057,87.406997 11.54395,42.574 21.22295,77.786 21.50995,78.25 0.287,0.464 10.732,0.843 23.212,0.843 l 22.691,-10e-4 0.048,-107.999 0.049,-107.999997 h -5.87 -5.869 l 0.821,49.25 c 1.032,61.914997 1.06,130.394997 0.055,133.986997 -1.318,4.713 -4.389,5.863 -15.611,5.85 -11.6,-0.014 -15.034,-1.256 -17.401,-6.293 -3.102,-6.601 -14.858,-48.45 -43.27195,-154.043997 l -7.737,-28.75 h -26.356 c -14.496,0 -26.354,0.337 -26.35,0.75 m 203.99295,-0.446 c -0.275,0.288 -0.109,24.638 0.369,54.109997 0.491,30.326 0.491,76.846 0,107.172 -0.478,29.472 -0.681,53.772 -0.452,54 0.878,0.873 73.107,0.363 83.125,-0.587 11.976,-1.136 20.21,-3.056 27.458,-6.401 16.142,-7.452 29.551,-24.996 34.466,-45.098 3.109,-12.711 4.034,-25.438 4.034,-55.5 0,-40.114 -2.074,-55.524 -9.511,-70.672997 -9.583,-19.519 -22.993,-30.013 -44.491,-34.817 -6.139,-1.372 -15.38,-1.771 -50.998,-2.203 -23.925,-0.29 -43.725,-0.292 -44,-0.003 m 195.696,0.446 c -0.233,0.413 -0.011,20.55 0.491,44.75 0.514,24.735997 0.564,69.612997 0.114,102.499997 -0.441,32.175 -0.801,60.525 -0.801,63 v 4.5 l 5.752,0.3 5.752,0.3 -0.664,-45.953 c -0.756,-52.404 -0.928,-50.982 6.513,-53.854 4.252,-1.641 9.021,-1.793 56.147,-1.793 28.325,0 53.694,0.374 56.376,0.83 2.963,0.505 5.806,1.762 7.25,3.205 l 2.374,2.374 v 47.595 47.596 l 5.565,-0.3 5.565,-0.3 -0.315,-28 c -0.173,-15.4 -0.205,-63.888 -0.07,-107.75 l 0.245,-79.749997 h -5.592 -5.592 l 0.657,41.25 c 0.734,46.097997 0.849,45.181997 -5.991,47.729997 -5.484,2.043 -109.564,2.25 -116.225,0.231 -7.874,-2.387 -7.654,-0.872 -6.931,-47.781997 l 0.638,-41.429 h -5.418 c -2.98,0 -5.608,0.337 -5.84,0.75 m -1218.695953,6.992 c -2.913,1.026 -6.648,3.732 -10.589,7.671 -7.746,7.744 -9.855,13.354 -9.21,24.499 0.718,12.399997 6.985,21.548997 18.723,27.332997 6.823003,3.362 18.561003,3.198 26.162003,-0.366 6.833,-3.203 12.041,-8.259 15.616,-15.162 3.634,-7.015997 3.945,-19.720997 0.658,-26.838997 -3.104,-6.723 -8.678,-12.381 -15.603,-15.842 -5.24,-2.618 -7.122,-3.025 -13.667,-2.957 -4.174,0.043 -9.615003,0.792 -12.090003,1.663 m 3.459003,12.082 c -7.764003,3.633 -12.075003,11.418 -11.224003,20.268 1.583,16.479997 21.555003,23.380997 33.397003,11.539997 6.752,-6.752997 7.859,-14.829997 3.265,-23.833997 -4.248,-8.327 -16.487,-12.163 -25.438,-7.974 m 168.714,2.1 c -4.152,0.516 -7.001,1.46 -8.288,2.746 -3.3,3.301 -4.055,12.983 -3.709,47.550997 0.355,35.417 0.587,36.871 6.333,39.77 2.498,1.26 8.757,1.507 37.991,1.497 38.94,-0.014 42.873,-0.449 54.158,-5.991 8.009,-3.933 15.707,-11.468 19.068,-18.665 6.657,-14.253 5.409,-35.412 -2.815,-47.727997 -4.347,-6.51 -7.843,-9.52 -15.644,-13.47 -10.488,-5.312 -14.224,-5.783 -48.767,-6.153 -17.6,-0.188 -34.847,0.011 -38.327,0.443 m 201.582,-0.056 c -13.178,0.777 -14.344,1.356 -15.801,7.841 -1.144,5.092 -5.558,55.050997 -7.03,79.561997 -1.247,20.77 -0.912,22.484 4.878,24.982 3.605,1.554 79.936,2.303 90.174,0.884 11.213,-1.554 11.582,-2.157 11.271,-18.421 -0.415,-21.601 -6.454,-87.365997 -8.349,-90.905997 -0.561,-1.048 -2.139,-2.331 -3.508,-2.852 -3.162,-1.202 -56.086,-2.008 -71.635,-1.09 m 667.92695,1.061 c -4.921,1.003 -6.696,2.862 -7.853,8.223 -1.319,6.117 -2.178,112.378997 -1.095,135.491997 0.699,14.906 1.259,19.697 2.531,21.638 2.962,4.52 8.883,5.218 44.235,5.218 36.548,0 41.682,-0.704 55.47,-7.605 12.681,-6.347 20.407,-16.552 25.032,-33.066 4.926,-17.589 4.986,-70.996 0.102,-89.973 -5.418,-21.048997 -16.471,-32.177997 -37.804,-38.064997 -7.188,-1.983 -10.507,-2.171 -42.3,-2.396 -18.975,-0.134 -36.218,0.107 -38.318,0.534 m -1032.88495,8.485 c -3.35,1.67 -4.817,5.231 -3.596,8.732 1.813,5.201 7.88,6.526 11.625,2.54 5.523,-5.88 -0.862,-14.845 -8.029,-11.272 m -39.154003,63.321997 -12.572,22.723 4.602,1.808 c 2.531,0.994 5.051,1.658 5.6,1.475 0.549,-0.183 6.295,-9.762 12.77,-21.287 13.133,-23.376 12.723,-21.208 4.88,-25.841 l -2.708,-1.6 -12.572,22.722 m 67.357003,-20.089 c -1.925,1.361 -3.853,2.823 -4.285,3.249 -0.569,0.561 20.568,40.291 22.854,42.956 0.461,0.538 10.431,-2.927 10.431,-3.625 0,-1.028 -24.465,-45.177 -25,-45.115 -0.275,0.033 -2.075,1.173 -4,2.535 m -44.666003,28.653 c -6.356,11.446 -11.394,20.955 -11.195,21.131 0.85,0.752 14.134,2.542 23.361003,3.147 9.141,0.599 26.758,-0.597 35.234,-2.393 l 3.234,-0.685 -11.675,-21.072 -11.675,-21.071 -7.864,0.066 -7.864,0.065 -11.556003,20.812 m -68.37,14.243 c -1.647,1.985 -1.904,1.796 12.137,8.935 39.645,20.155 85.318003,23.738 127.604003,10.009 12.073,-3.919 35.139,-14.916 36.001,-17.163 1.433,-3.734 -1.823,-3.062 -12.824,2.647 -6.333,3.286 -16.915,7.781 -23.517,9.988 -42.038,14.055 -91.791003,9.717 -129.343003,-11.278 -4.113,-2.3 -7.758,-4.308 -8.1,-4.464 -0.342,-0.156 -1.223,0.441 -1.958,1.326 m 11.642,38.267 -6.549,11.809 2.176,6.691 c 1.196,3.679 2.446,6.69 2.778,6.69 0.665,0 19.268,-33.111 18.788,-33.44 -0.648,-0.445 -9.405,-3.56 -10.006,-3.56 -0.351,0 -3.586,5.314 -7.187,11.81 m 139.613003,-10.018 c -2.355,0.904 -4.155,2.131 -4,2.726 0.154,0.595 4.314,8.356 9.243,17.246 l 8.962,16.165 2.288,-6.086 c 1.258,-3.348 2.288,-6.764 2.288,-7.592 0,-2.19 -12.317,-24.237 -13.5,-24.165 -0.55,0.034 -2.927,0.801 -5.281,1.706"
     stroke="none"
     fill="#e42707"
     fill-rule="evenodd"
     id="path1" />
</svg>
